<svg width="259" height="155" viewBox="0 0 259 155" fill="none" xmlns="http://www.w3.org/2000/svg">
<rect x="4.4628" y="4.40054" width="251.009" height="147.008" rx="13.5051" fill="white"/>
<rect x="4.4628" y="4.40054" width="251.009" height="147.008" rx="13.5051" stroke="#FF5120" stroke-width="7.00262"/>
<path fill-rule="evenodd" clip-rule="evenodd" d="M128.688 66.8178C125.607 60.4561 118.403 57.3936 112.808 57.3936H93.1749C92.1731 57.3936 91.3557 58.1996 91.3557 59.1985V98.6055C91.3557 99.5995 92.1681 100.41 93.1749 100.41H105.71C106.712 100.41 107.529 99.6044 107.529 98.6055V91.0742C107.529 90.0803 108.342 89.2693 109.349 89.2693H112.728C116.865 89.2693 121.858 87.8145 125.443 84.591C125.87 89.6947 127.404 93.6292 130.051 96.3856V96.3906C133.204 99.679 137.336 101.326 142.577 101.326C147.819 101.326 152.354 99.8291 156.183 96.836C157.893 95.4997 159.521 93.8609 161.068 91.9194C161.037 92.4176 161.021 92.9053 161.021 93.3824V93.3624C161.021 98.1023 163.226 100.475 167.635 100.475C170.047 100.475 172.216 99.6939 174.143 98.1273C176.065 96.5657 177.644 94.7939 178.875 92.8119C179.023 92.5734 179.172 92.3299 179.322 92.0813L179.321 92.1964C179.321 94.9593 179.851 97.0214 180.921 98.3778C181.99 99.7342 183.498 100.415 185.446 100.415C187.903 100.415 190.036 99.4489 191.848 97.5169C193.659 95.5849 195.258 93.1224 196.65 90.1293C196.514 91.1453 196.443 92.0863 196.443 92.9622C196.443 97.9824 198.436 100.49 202.426 100.49C204.838 100.49 207.007 99.7091 208.934 98.1425C210.856 96.5809 212.435 94.8091 213.666 92.8271C213.991 92.3047 214.319 91.7579 214.648 91.1868C215.078 93.51 216.063 95.4869 217.603 97.1121C219.737 99.3694 222.476 100.496 225.816 100.496C228.041 100.496 230.271 99.8049 232.495 98.4235C234.72 97.0421 236.713 95.1551 238.478 92.7627H238.468C241.591 88.6785 242.504 84.8245 242.504 84.8245C243.478 81.7864 243.967 78.7733 243.967 75.7802C243.967 69.2435 241.435 65.9751 236.38 65.9751C235.497 65.9751 234.559 66.2054 233.56 66.6659C232.566 67.1263 231.602 67.817 230.674 68.738C230.306 69.1034 229.912 69.2886 229.494 69.2886C229.262 69.2886 229.08 69.2235 228.939 69.0833C228.803 68.9432 228.732 68.783 228.732 68.5978L228.803 68.3226C229.312 66.3405 230.518 63.2824 232.42 59.1381C232.515 58.9079 232.768 58.3073 233.186 57.3413C233.928 55.7296 234.301 54.3983 234.301 53.3372C234.301 51.6805 233.418 50.8496 231.517 50.8496C229.615 50.8496 227.894 52.0709 226.366 54.5084C224.837 56.9459 223.026 60.975 220.938 66.5908L216.347 79.504C216.07 80.4228 215.839 81.1125 215.652 81.573C214.866 82.7229 214.115 83.598 213.394 84.1932C212.672 84.7888 211.875 85.0891 210.851 85.0891C209.827 85.0891 208.98 84.7688 208.309 84.1231C207.638 83.4775 207.3 82.5315 207.3 81.2902C207.3 80.5545 207.426 79.7336 207.683 78.8377C207.94 77.9368 208.324 76.7756 208.833 75.3491C209.388 73.6924 209.792 72.3961 210.049 71.4501C210.306 70.5041 210.432 69.5982 210.432 68.7223C210.432 66.8804 209.711 65.9595 208.273 65.9595C206.558 65.9595 204.954 67.1107 203.471 69.413C201.982 71.7154 200.499 75.214 199.016 79.9088L198.946 80.1841C197.831 83.4074 195.883 85.0191 193.099 85.0191C191.984 85.0191 191.222 84.7638 190.803 84.2583C190.385 83.7528 190.178 82.9719 190.178 81.9109C190.178 81.04 190.294 80.1641 190.526 79.2882C190.753 78.4173 191.151 77.196 191.706 75.6294C192.261 73.9727 192.665 72.6614 192.922 71.6954C193.179 70.7294 193.306 69.7384 193.306 68.7273C193.306 66.8854 192.584 65.9645 191.146 65.9645C189.244 65.9645 187.469 67.2658 185.824 69.8635C184.18 72.4612 182.52 76.3652 180.85 81.5655L180.846 81.5776C179.32 83.9135 177.442 85.0839 175.222 85.0839C174.012 85.0839 173.169 84.7886 172.68 84.188C172.191 83.5874 171.948 82.7615 171.948 81.7004C171.948 80.5543 172.231 79.0327 172.786 77.1458C174.224 71.9004 176.938 65.2936 180.928 57.3304C181.715 55.8139 182.109 54.5025 182.109 53.3964C182.109 51.6946 181.155 50.8438 179.253 50.8438C177.583 50.8438 176.055 51.7897 174.663 53.6767C173.27 55.5686 171.913 58.1763 170.591 61.5147C169.27 64.8531 167.378 70.0685 164.921 77.1558L163.447 81.403C163.401 81.4558 163.358 81.5132 163.316 81.5754C162.247 83.187 160.638 84.3382 158.478 85.0289C156.319 85.7196 154.009 86.065 151.552 86.065C147.143 86.065 143.768 84.9989 141.427 82.8567C139.081 80.7145 137.911 78.0117 137.911 74.7434C137.911 72.486 138.4 70.3138 139.374 68.2166C140.348 66.1245 141.694 64.4428 143.41 63.1765C145.125 61.9102 147.002 61.2795 149.045 61.2795C150.25 61.2795 151.209 61.5648 151.93 62.1404C152.652 62.716 153.01 63.5769 153.01 64.7281C153.01 66.3397 152.339 68.4118 150.992 70.9444C150.805 71.4049 150.715 71.7252 150.715 71.9104C150.715 72.416 150.957 72.8514 151.446 73.2218C151.935 73.5872 152.551 73.7724 153.292 73.7724C155.058 73.7724 156.915 73.1517 158.862 71.9104C160.814 70.6642 162.449 68.9624 163.77 66.8002C165.092 64.638 165.753 62.2906 165.753 59.758C165.753 56.7198 164.628 54.3124 162.378 52.5405C160.128 50.7687 156.844 49.8828 152.531 49.8828C147.844 49.8828 143.4 51.3443 139.202 54.2673C135.005 57.1903 131.64 61.0893 129.113 65.9693C128.967 66.2512 128.825 66.534 128.688 66.8178ZM225.776 85.1699C226.356 85.8606 227.274 86.2059 228.525 86.2059C229.64 86.2059 230.649 85.8706 231.552 85.2049C232.455 84.5392 233.161 83.6984 233.676 82.6873C234.185 81.6763 234.443 80.6853 234.443 79.7193C234.443 78.6582 234.13 77.7873 233.504 77.0966C232.879 76.4059 231.915 76.0605 230.614 76.0605C228.989 76.0605 227.632 76.7312 226.542 78.0626C225.453 79.3989 224.908 80.8704 224.908 82.4821C224.908 83.5882 225.196 84.4842 225.776 85.1749V85.1699ZM110.4 69.6424C112.253 69.6424 113.608 71.1533 113.61 73.3265C113.608 75.4996 112.253 77.0105 110.4 77.0105H109.344C108.342 77.0105 107.524 76.2045 107.524 75.2056V71.4474C107.524 70.4534 108.337 69.6424 109.344 69.6424H110.4Z" fill="#FF5120"/>
<path d="M32.0261 101.325C39.9908 101.325 50.3928 97.577 50.3928 87.237L50.3978 87.232C50.3978 79.1518 43.6392 74.998 39.7615 73.9645L35.1512 72.7332C35.0011 72.6932 34.855 72.656 34.7137 72.62L34.7123 72.6196C33.5252 72.3172 32.674 72.1004 32.674 71.0667C32.674 69.8057 34.0596 69.3211 36.3524 69.3211C38.371 69.3211 40.9378 69.8403 43.1159 70.8887C44.332 71.4722 45.7525 70.6365 45.7525 69.2914V60.1134C45.7525 59.3964 45.3289 58.7338 44.656 58.4568C42.2187 57.4579 37.8177 56.4541 33.3917 56.4541C25.6364 56.4541 15.967 61.1272 15.967 70.7156C15.967 79.765 23.0645 82.1485 25.741 82.8606L30.8598 84.2403C32.1557 84.5914 33.7058 85.3974 33.7058 86.7672C33.7058 88.2804 31.7171 88.76 29.539 88.76C26.5136 88.76 22.8352 87.8403 20.2335 86.4903C19.0323 85.8672 17.5969 86.7622 17.5969 88.1073V97.4781C17.5969 98.2446 18.0853 98.932 18.813 99.1842C21.5842 100.148 26.6033 101.325 32.0261 101.325Z" fill="#FF5120"/>
<path d="M86.7819 57.3979C87.7887 57.3979 88.6011 58.2089 88.6011 59.2029V86.0693C88.6011 92.6116 83.5771 101.31 70.1048 101.31C56.6326 101.31 51.6085 92.6165 51.6085 86.0693V59.2029C51.6085 58.204 52.4259 57.3979 53.4277 57.3979H66.2172C67.224 57.3979 68.0364 58.2089 68.0364 59.2029V84.3039C68.0364 85.6242 68.8688 86.4797 70.0998 86.4797C71.3309 86.4797 72.1633 85.6242 72.1633 84.3039V59.2029C72.1633 58.204 72.9807 57.3979 73.9825 57.3979H86.7819Z" fill="#FF5120"/>
<path fill-rule="evenodd" clip-rule="evenodd" d="M69.1417 127.454C68.6694 127.454 68.2865 127.071 68.2865 126.599V115.86C68.2865 115.387 67.9036 115.004 67.4312 115.004H56.5931C56.1208 115.004 55.7379 115.387 55.7379 115.86V126.599C55.7379 127.071 55.355 127.454 54.8827 127.454L44.0454 127.454C43.5731 127.454 43.1902 127.837 43.1902 128.309V139.049C43.1902 139.521 43.5731 139.904 44.0454 139.904H54.8835C55.3559 139.904 55.7388 139.521 55.7388 139.049V128.31C55.7388 127.837 56.1217 127.454 56.594 127.454L67.431 127.454C67.9034 127.454 68.2863 127.837 68.2863 128.31V139.049C68.2863 139.522 68.6692 139.904 69.1415 139.904H79.9796C80.4519 139.904 80.8348 139.522 80.8348 139.049V128.31C80.8348 127.838 81.2177 127.455 81.6901 127.455L92.5265 127.455C92.9988 127.455 93.3817 127.072 93.3817 126.6V115.86C93.3817 115.388 92.9988 115.005 92.5265 115.005L81.6884 115.005C81.216 115.005 80.8331 115.388 80.8331 115.86V126.599C80.8331 127.071 80.4502 127.454 79.9779 127.454L69.1417 127.454ZM119.335 127.454C118.862 127.454 118.479 127.071 118.479 126.599V115.86C118.479 115.388 118.096 115.005 117.624 115.005L106.786 115.005C106.314 115.005 105.931 115.388 105.931 115.86V126.6C105.931 127.072 105.548 127.455 105.076 127.455L94.2385 127.455C93.7661 127.455 93.3832 127.838 93.3832 128.31V139.05C93.3832 139.522 93.7661 139.905 94.2385 139.905H105.077C105.549 139.905 105.932 139.522 105.932 139.05V128.31C105.932 127.838 106.315 127.455 106.787 127.455L117.624 127.455C118.096 127.455 118.479 127.838 118.479 128.31V139.049C118.479 139.522 118.862 139.904 119.334 139.904H130.172C130.645 139.904 131.027 139.522 131.027 139.049V128.31C131.027 127.837 131.41 127.454 131.883 127.454L142.72 127.454C143.192 127.454 143.575 127.072 143.575 126.599V115.86C143.575 115.387 143.192 115.004 142.72 115.004H131.882C131.41 115.004 131.027 115.387 131.027 115.86V126.599C131.027 127.071 130.644 127.454 130.172 127.454L119.335 127.454ZM167.816 127.455C168.289 127.455 168.672 127.072 168.672 126.6V115.86C168.672 115.388 168.289 115.005 167.816 115.005L156.978 115.005C156.506 115.005 156.123 115.388 156.123 115.86V126.599C156.123 127.071 155.74 127.454 155.268 127.454L144.431 127.454C143.959 127.454 143.576 127.837 143.576 128.31V139.049C143.576 139.522 143.959 139.904 144.431 139.904H155.269C155.741 139.904 156.124 139.522 156.124 139.049V128.31C156.124 127.838 156.507 127.455 156.979 127.455L167.816 127.455ZM219.72 127.454C219.248 127.454 218.865 127.071 218.865 126.599V115.86C218.865 115.388 218.482 115.005 218.01 115.005L207.171 115.005C206.699 115.005 206.316 115.388 206.316 115.86V126.598C206.316 127.071 205.933 127.453 205.461 127.453L194.624 127.453C194.152 127.453 193.769 127.071 193.769 126.598V115.861C193.769 115.388 193.386 115.005 192.914 115.005L182.075 115.005C181.603 115.005 181.22 115.388 181.22 115.861V126.599C181.22 127.071 180.837 127.454 180.365 127.454L169.527 127.454C169.055 127.454 168.672 127.837 168.672 128.309V139.049C168.672 139.521 169.055 139.904 169.527 139.904H180.366C180.838 139.904 181.221 139.521 181.221 139.049V128.311C181.221 127.838 181.604 127.455 182.076 127.455L192.913 127.455C193.386 127.455 193.769 127.838 193.769 128.311V139.048C193.769 139.521 194.152 139.903 194.624 139.903H205.462C205.934 139.903 206.317 139.521 206.317 139.048V128.31C206.317 127.838 206.7 127.455 207.172 127.455L218.009 127.455C218.481 127.455 218.864 127.838 218.864 128.31V139.049C218.864 139.521 219.247 139.904 219.719 139.904H230.558C231.03 139.904 231.413 139.521 231.413 139.049V128.309C231.413 127.837 231.03 127.454 230.558 127.454L219.72 127.454ZM243.107 127.455C243.579 127.455 243.962 127.072 243.962 126.6V115.86C243.962 115.388 243.579 115.005 243.107 115.005L232.268 115.005C231.796 115.005 231.413 115.388 231.413 115.86V126.6C231.413 127.072 231.796 127.455 232.268 127.455L243.107 127.455ZM42.334 115.005C42.8063 115.005 43.1892 115.388 43.1892 115.86V126.6C43.1892 127.072 42.8063 127.455 42.334 127.455L31.4958 127.455C31.0235 127.455 30.6406 127.072 30.6406 126.6V115.86C30.6406 115.388 31.0235 115.005 31.4958 115.005L42.334 115.005ZM29.7852 139.905C30.2575 139.905 30.6404 139.522 30.6404 139.05V128.31C30.6404 127.838 30.2575 127.455 29.7852 127.455L18.947 127.455C18.4747 127.455 18.0918 127.838 18.0918 128.31L18.0918 139.05C18.0918 139.522 18.4747 139.905 18.947 139.905H29.7852Z" fill="#003120"/>
<path fill-rule="evenodd" clip-rule="evenodd" d="M94.2379 28.3561C93.7655 28.3561 93.3826 28.739 93.3826 29.2113L93.3826 39.9509C93.3826 40.4232 93.7655 40.8061 94.2379 40.8061L105.076 40.8061C105.548 40.8061 105.931 40.4232 105.931 39.9509L105.931 29.2113C105.931 28.739 105.548 28.3561 105.076 28.3561L94.2379 28.3561ZM169.527 28.3561C169.055 28.3561 168.672 28.739 168.672 29.2113L168.672 39.9509C168.672 40.4232 169.055 40.8061 169.527 40.8061L180.365 40.8061C180.838 40.8061 181.22 40.4232 181.22 39.9509L181.22 29.2113C181.22 28.739 180.838 28.3561 180.365 28.3561L169.527 28.3561ZM192.912 28.3558C193.385 28.3558 193.768 28.7387 193.768 29.211L193.768 39.9504C193.768 40.4228 194.151 40.8057 194.623 40.8057L205.461 40.8057C205.933 40.8057 206.316 40.4228 206.316 39.9504L206.316 29.2108C206.316 28.7385 205.933 28.3556 205.461 28.3556L194.623 28.3556C194.151 28.3556 193.768 27.9727 193.768 27.5004L193.768 16.7609C193.768 16.2886 193.385 15.9057 192.913 15.9057L182.075 15.9057C181.602 15.9057 181.219 16.2886 181.219 16.7609L181.219 27.5005C181.219 27.9729 181.602 28.3558 182.075 28.3558L192.912 28.3558ZM144.43 40.8057C143.958 40.8057 143.575 40.4228 143.575 39.9504L143.575 29.2108C143.575 28.7385 143.958 28.3556 144.43 28.3556L155.268 28.3556C155.741 28.3556 156.123 28.7385 156.123 29.2108L156.123 39.9504C156.123 40.4228 155.741 40.8057 155.268 40.8057L144.43 40.8057ZM42.3342 28.3562C42.8065 28.3562 43.1894 28.7391 43.1894 29.2115L43.1894 39.9499C43.1894 40.4223 43.5723 40.8052 44.0446 40.8052L54.8828 40.8052C55.3551 40.8052 55.738 40.4223 55.738 39.9499L55.738 29.211C55.738 28.7387 56.1209 28.3558 56.5932 28.3558L67.4306 28.3558C67.9029 28.3558 68.2858 27.9729 68.2858 27.5005L68.2858 16.7609C68.2858 16.2886 67.9029 15.9057 67.4306 15.9057L56.5924 15.9057C56.1201 15.9057 55.7372 16.2886 55.7372 16.7609L55.7372 27.4999C55.7372 27.9722 55.3543 28.3551 54.882 28.3551L44.0449 28.3551C43.5726 28.3551 43.1897 27.9722 43.1897 27.4999L43.1897 16.7614C43.1897 16.2891 42.8068 15.9062 42.3344 15.9062L31.4963 15.9062C31.024 15.9062 30.6411 16.2891 30.6411 16.7614L30.6411 27.501C30.6411 27.9733 31.024 28.3562 31.4963 28.3562L42.3342 28.3562ZM207.171 28.3553C206.698 28.3553 206.315 27.9724 206.315 27.5L206.315 16.7604C206.315 16.2881 206.698 15.9052 207.171 15.9052L218.009 15.9052C218.481 15.9052 218.864 16.2881 218.864 16.7604L218.864 27.5C218.864 27.9724 218.481 28.3553 218.009 28.3553L207.171 28.3553ZM119.334 28.3561C118.862 28.3561 118.479 28.739 118.479 29.2113L118.479 39.9509C118.479 40.4232 118.862 40.8061 119.334 40.8061L130.172 40.8061C130.644 40.8061 131.027 40.4232 131.027 39.9509L131.027 29.2113C131.027 28.739 130.644 28.3561 130.172 28.3561L119.334 28.3561ZM69.1411 40.8057C68.6688 40.8057 68.2859 40.4228 68.2859 39.9504L68.2859 29.2108C68.2859 28.7385 68.6688 28.3556 69.1411 28.3556L79.9782 28.3556C80.4505 28.3556 80.8334 27.9727 80.8334 27.5004L80.8334 16.7609C80.8334 16.2886 81.2163 15.9057 81.6886 15.9057L92.5267 15.9057C92.9991 15.9057 93.382 16.2886 93.382 16.7609L93.382 27.5005C93.382 27.9729 92.9991 28.3558 92.5267 28.3558L81.6897 28.3558C81.2174 28.3558 80.8345 28.7387 80.8345 29.211L80.8345 39.9504C80.8345 40.4228 80.4516 40.8057 79.9793 40.8057L69.1411 40.8057ZM18.9475 28.3556C18.4752 28.3556 18.0923 28.7385 18.0923 29.2108L18.0923 39.9504C18.0923 40.4228 18.4752 40.8057 18.9475 40.8057L29.7856 40.8057C30.2579 40.8057 30.6408 40.4228 30.6408 39.9504L30.6408 29.2108C30.6408 28.7385 30.2579 28.3556 29.7856 28.3556L18.9475 28.3556ZM219.719 40.8061C219.247 40.8061 218.864 40.4232 218.864 39.9509L218.864 29.2113C218.864 28.739 219.247 28.3561 219.719 28.3561L230.558 28.3561C231.03 28.3561 231.413 28.739 231.413 29.2113L231.413 39.9509C231.413 40.4232 231.03 40.8061 230.558 40.8061L219.719 40.8061ZM131.882 15.9047C131.409 15.9047 131.027 16.2876 131.027 16.76L131.027 27.4996C131.027 27.9719 131.409 28.3548 131.882 28.3548L142.72 28.3548C143.192 28.3548 143.575 27.9719 143.575 27.4996L143.575 16.76C143.575 16.2876 143.192 15.9047 142.72 15.9047L131.882 15.9047ZM156.978 28.3553C156.506 28.3553 156.123 27.9724 156.123 27.5L156.123 16.7604C156.123 16.2881 156.506 15.9052 156.978 15.9052L167.816 15.9052C168.289 15.9052 168.672 16.2881 168.672 16.7604L168.672 27.5C168.672 27.9724 168.289 28.3553 167.816 28.3553L156.978 28.3553ZM106.785 15.9052C106.313 15.9052 105.93 16.2881 105.93 16.7604L105.93 27.5C105.93 27.9724 106.313 28.3553 106.785 28.3553L117.623 28.3553C118.096 28.3553 118.479 27.9724 118.479 27.5L118.479 16.7604C118.479 16.2881 118.096 15.9052 117.623 15.9052L106.785 15.9052ZM232.269 15.9052C231.797 15.9052 231.414 16.2881 231.414 16.7604L231.414 27.5C231.414 27.9724 231.797 28.3553 232.269 28.3553L243.107 28.3553C243.58 28.3553 243.962 27.9724 243.962 27.5L243.962 16.7604C243.962 16.2881 243.58 15.9052 243.107 15.9052L232.269 15.9052Z" fill="#003120"/>
</svg>
