<svg width="343" height="192" viewBox="0 0 343 192" fill="none" xmlns="http://www.w3.org/2000/svg">
<path d="M288.542 51.7836L296.215 14.6346C297.242 9.66405 293.445 5.00391 288.369 5.00391L55.492 5.00391C50.4165 5.00391 46.619 9.66405 47.6465 14.6346L55.3197 51.7836C56.3472 56.7541 52.5496 61.4143 47.4742 61.4143H13.9471C8.82154 61.4143 5.01396 66.1586 6.12559 71.1611L30.4713 180.73C31.2865 184.394 34.5372 187.004 38.2927 187.004H305.571C309.326 187.004 312.577 184.396 313.392 180.73L337.738 71.1611C338.849 66.1586 335.042 61.4143 329.916 61.4143H296.391C291.316 61.4143 287.518 56.7541 288.546 51.7836H288.542Z" fill="#FF6138"/>
<path fill-rule="evenodd" clip-rule="evenodd" d="M55.3197 51.7837L47.6464 14.6347C46.6189 9.66413 50.4165 5.00399 55.4919 5.00399L288.369 5.00399C293.445 5.00399 297.242 9.66413 296.215 14.6347L288.546 51.7643L288.542 51.7828L288.546 51.7837C288.545 51.7839 288.546 51.7834 288.546 51.7837C288.544 51.7899 288.543 51.7969 288.542 51.8031C288.315 52.9099 288.329 54.0011 288.542 55.0285C288.543 55.0349 288.544 55.0412 288.546 55.0476C289.295 58.6183 292.46 61.4144 296.391 61.4144H329.916C335.042 61.4144 338.849 66.1586 337.738 71.1612L313.392 180.73C312.577 184.397 309.326 187.004 305.57 187.004H38.2927C34.5372 187.004 31.2864 184.395 30.4712 180.73L6.12554 71.1612C5.01391 66.1586 8.82149 61.4144 13.947 61.4144H47.4742C52.5496 61.4144 56.3472 56.7542 55.3197 51.7837ZM1.27405 72.2392C1.27404 72.2392 1.27405 72.2392 1.27405 72.2392C-0.527646 64.131 5.64413 56.4446 13.947 56.4446H47.4742C49.4022 56.4446 50.8423 54.6744 50.4527 52.7898L42.7795 15.6408C42.7794 15.6405 42.7795 15.641 42.7795 15.6408C41.1146 7.5846 47.2693 0.0341797 55.4919 0.0341797L288.369 0.0341797C296.592 0.0341797 302.747 7.5843 301.082 15.6408L294.643 46.8139H294.648L293.412 52.7898C293.023 54.6744 294.463 56.4446 296.391 56.4446H329.916C338.219 56.4446 344.391 64.131 342.589 72.2392L318.243 181.808C316.923 187.748 311.655 191.974 305.57 191.974H38.2927C32.2065 191.974 26.9405 187.745 25.62 181.809L1.27405 72.2392Z" fill="#003021"/>
<path d="M228.026 164.473C228.928 164.774 230.191 165.876 230.191 167.78C230.191 170.405 227.826 172.389 224.299 172.389C222.495 172.389 220.972 171.848 220.451 171.568V166.758H220.752C221.132 167.72 222.174 168.441 223.397 168.441C224.559 168.441 225.241 167.88 225.241 167.239C225.241 166.658 224.86 166.517 224.158 166.517H222.936V163.211H223.978C224.579 163.211 225.161 162.99 225.161 162.449C225.161 161.908 224.459 161.547 223.557 161.547C222.235 161.547 221.192 162.148 220.872 163.471H220.531V159.022C220.992 158.661 222.215 157.76 224.7 157.76C227.024 157.76 229.79 158.982 229.79 161.427C229.79 163.15 228.928 164.153 228.026 164.473Z" fill="white"/>
<path d="M214.777 167.92H218.945V172.089H208.945V171.688C208.945 168.501 210.949 166.197 211.931 165.175C212.913 164.153 213.755 163.391 213.755 162.77C213.755 162.229 213.354 161.748 212.612 161.748C211.31 161.748 210.428 162.81 210.107 164.032H209.746V159.062C210.207 158.721 211.771 157.76 214.256 157.76C216.62 157.76 218.925 159.142 218.925 161.587C218.925 163.732 217.422 165.034 216.56 165.916C215.679 166.838 214.977 167.359 214.777 167.92Z" fill="white"/>
<path d="M201.269 157.76C205.378 157.76 208.384 160.726 208.384 165.074C208.384 169.403 205.378 172.389 201.269 172.389C197.161 172.389 194.155 169.403 194.155 165.074C194.155 160.726 197.161 157.76 201.269 157.76ZM201.269 168.02C202.271 168.02 202.973 167.179 202.973 165.074C202.973 162.97 202.271 162.108 201.269 162.108C200.287 162.108 199.566 162.97 199.566 165.074C199.566 167.179 200.287 168.02 201.269 168.02Z" fill="white"/>
<path d="M189.13 167.92H193.299V172.089H183.298V171.688C183.298 168.501 185.302 166.197 186.284 165.175C187.266 164.153 188.108 163.391 188.108 162.77C188.108 162.229 187.707 161.748 186.966 161.748C185.663 161.748 184.781 162.81 184.461 164.032H184.1V159.062C184.561 158.721 186.124 157.76 188.609 157.76C190.974 157.76 193.279 159.142 193.279 161.587C193.279 163.732 191.776 165.034 190.914 165.916C190.032 166.838 189.331 167.359 189.13 167.92Z" fill="white"/>
<path d="M168.993 166.537V167.74H174.124V172.069H168.993H163.762V158.06H174.043V162.349H168.993V163.431H173.783V166.537H168.993Z" fill="white"/>
<path d="M159.704 167.399C160.886 167.399 161.728 166.778 162.049 166.217H162.249V171.668C161.487 172.008 160.465 172.369 158.762 172.369C155.736 172.369 151.467 170.285 151.467 165.054C151.467 159.804 155.535 157.76 158.521 157.76C160.205 157.76 161.507 158.16 162.169 158.501L162.149 163.852H161.968C161.788 163.551 161.026 162.67 159.744 162.67C158.301 162.67 157.219 163.631 157.219 165.054C157.219 166.517 158.441 167.399 159.704 167.399Z" fill="white"/>
<path d="M145.024 165.635V158.06H150.275V172.069H143.782L141.898 163.992V172.069H136.667V158.06H143.421L145.024 165.635Z" fill="white"/>
<path d="M135.054 172.069H129.823V158.06H135.054V172.069Z" fill="white"/>
<path d="M125.245 163.451C126.488 163.792 128.672 165.155 128.672 167.78C128.672 171.147 125.305 172.369 122.74 172.369C120.676 172.369 118.812 171.848 118.071 171.528V166.898C118.692 167.66 120.536 168.281 121.938 168.281C122.64 168.281 123.281 168.121 123.281 167.62C123.281 167.179 122.78 166.918 122.359 166.798L120.696 166.357C119.834 166.117 117.55 165.355 117.55 162.389C117.55 159.263 120.676 157.74 123.181 157.74C124.864 157.74 126.528 158.2 127.169 158.561V163.03C126.408 162.309 125.085 161.948 124.143 161.948C123.401 161.948 122.941 162.088 122.941 162.509C122.941 162.89 123.281 162.93 123.742 163.05L125.245 163.451Z" fill="white"/>
<path d="M275.168 24.2622H268.471C267.914 24.2622 267.464 24.7056 267.464 25.2535V31.4691C267.464 32.017 267.013 32.4604 266.457 32.4604H260.12C259.563 32.4604 259.113 32.017 259.113 31.4691V25.2535C259.113 24.7056 258.662 24.2622 258.106 24.2622H251.408C250.852 24.2622 250.401 24.7056 250.401 25.2535V31.4691C250.401 32.017 249.951 32.4604 249.394 32.4604H243.057C242.501 32.4604 242.05 32.017 242.05 31.4691V25.2535C242.05 24.7056 241.6 24.2622 241.043 24.2622H234.346C233.789 24.2622 233.338 24.7056 233.338 25.2535V31.4691C233.338 32.017 232.888 32.4604 232.331 32.4604H225.995C225.438 32.4604 224.987 32.017 224.987 31.4691V25.2535C224.987 24.7056 224.537 24.2622 223.98 24.2622H217.283C216.726 24.2622 216.276 24.7056 216.276 25.2535V31.4691C216.276 32.017 215.825 32.4604 215.269 32.4604H208.932C208.375 32.4604 207.925 32.017 207.925 31.4691V25.2535C207.925 24.7056 207.474 24.2622 206.918 24.2622H200.22C199.664 24.2622 199.213 24.7056 199.213 25.2535V31.4691C199.213 32.017 198.763 32.4604 198.206 32.4604H191.869C191.313 32.4604 190.862 32.017 190.862 31.4691V25.2535C190.862 24.7056 190.412 24.2622 189.855 24.2622H183.158C182.601 24.2622 182.151 24.7056 182.151 25.2535V31.4691C182.151 32.017 181.7 32.4604 181.143 32.4604H174.807C174.25 32.4604 173.8 32.017 173.8 31.4691V25.2535C173.8 24.7056 173.349 24.2622 172.792 24.2622H166.095C165.538 24.2622 165.088 24.7056 165.088 25.2535V31.4691C165.088 32.017 164.637 32.4604 164.081 32.4604H157.744C157.187 32.4604 156.737 32.017 156.737 31.4691V25.2535C156.737 24.7056 156.286 24.2622 155.73 24.2622H149.032C148.476 24.2622 148.025 24.7056 148.025 25.2535V31.4691C148.025 32.017 147.575 32.4604 147.018 32.4604H140.681C140.125 32.4604 139.674 32.017 139.674 31.4691V25.2535C139.674 24.7056 139.224 24.2622 138.667 24.2622H131.97C131.413 24.2622 130.963 24.7056 130.963 25.2535V31.4691C130.963 32.017 130.512 32.4604 129.955 32.4604H123.619C123.062 32.4604 122.612 32.017 122.612 31.4691V25.2535C122.612 24.7056 122.161 24.2622 121.605 24.2622H114.907C114.35 24.2622 113.9 24.7056 113.9 25.2535V31.4691C113.9 32.017 113.45 32.4604 112.893 32.4604H106.556C105.999 32.4604 105.549 32.017 105.549 31.4691V25.2535C105.549 24.7056 105.099 24.2622 104.542 24.2622H97.8445C97.2878 24.2622 96.8373 24.7056 96.8373 25.2535V31.4691C96.8373 32.017 96.3869 32.4604 95.8302 32.4604H89.4935C88.9369 32.4604 88.4864 32.017 88.4864 31.4691V25.2535C88.4864 24.7056 88.0359 24.2622 87.4793 24.2622H80.7818C80.2252 24.2622 79.7747 24.7056 79.7747 25.2535V31.4691C79.7747 32.017 79.3242 32.4604 78.7676 32.4604H72.8136C72.2569 32.4604 71.8065 32.017 71.8065 31.4691V25.2535C71.8065 24.7056 71.356 24.2622 70.7993 24.2622H64.0918C63.5352 24.2622 63.0847 24.7056 63.0847 25.2535V31.8458C63.0847 32.3937 63.5352 32.8371 64.0918 32.8371H70.4066C70.9632 32.8371 71.4137 33.2805 71.4137 33.8284V40.044C71.4137 40.5919 71.8642 41.0353 72.4208 41.0353H79.1182C79.6749 41.0353 80.1254 40.5919 80.1254 40.044V33.8284C80.1254 33.2805 80.5758 32.8371 81.1325 32.8371H87.4692C88.0259 32.8371 88.4763 33.2805 88.4763 33.8284V40.044C88.4763 40.5919 88.9268 41.0353 89.4835 41.0353H96.1809C96.7376 41.0353 97.188 40.5919 97.188 40.044V33.8284C97.188 33.2805 97.6385 32.8371 98.1951 32.8371H104.532C105.088 32.8371 105.539 33.2805 105.539 33.8284V40.044C105.539 40.5919 105.989 41.0353 106.546 41.0353H113.244C113.8 41.0353 114.251 40.5919 114.251 40.044V33.8284C114.251 33.2805 114.701 32.8371 115.258 32.8371H121.594C122.151 32.8371 122.602 33.2805 122.602 33.8284V40.044C122.602 40.5919 123.052 41.0353 123.609 41.0353H130.306C130.863 41.0353 131.313 40.5919 131.313 40.044V33.8284C131.313 33.2805 131.764 32.8371 132.32 32.8371H138.657C139.214 32.8371 139.664 33.2805 139.664 33.8284V40.044C139.664 40.5919 140.115 41.0353 140.671 41.0353H147.369C147.925 41.0353 148.376 40.5919 148.376 40.044V33.8284C148.376 33.2805 148.826 32.8371 149.383 32.8371H155.72C156.276 32.8371 156.727 33.2805 156.727 33.8284V40.044C156.727 40.5919 157.177 41.0353 157.734 41.0353H164.431C164.988 41.0353 165.439 40.5919 165.439 40.044V33.8284C165.439 33.2805 165.889 32.8371 166.446 32.8371H172.782C173.339 32.8371 173.79 33.2805 173.79 33.8284V40.044C173.79 40.5919 174.24 41.0353 174.797 41.0353H181.494C182.051 41.0353 182.501 40.5919 182.501 40.044V33.8284C182.501 33.2805 182.952 32.8371 183.508 32.8371H189.845C190.402 32.8371 190.852 33.2805 190.852 33.8284V40.044C190.852 40.5919 191.303 41.0353 191.859 41.0353H198.557C199.113 41.0353 199.564 40.5919 199.564 40.044V33.8284C199.564 33.2805 200.014 32.8371 200.571 32.8371H206.908C207.464 32.8371 207.915 33.2805 207.915 33.8284V40.044C207.915 40.5919 208.365 41.0353 208.922 41.0353H215.619C216.176 41.0353 216.626 40.5919 216.626 40.044V33.8284C216.626 33.2805 217.077 32.8371 217.634 32.8371H223.97C224.527 32.8371 224.977 33.2805 224.977 33.8284V40.044C224.977 40.5919 225.428 41.0353 225.985 41.0353H232.682C233.239 41.0353 233.689 40.5919 233.689 40.044V33.8284C233.689 33.2805 234.14 32.8371 234.696 32.8371H241.033C241.59 32.8371 242.04 33.2805 242.04 33.8284V40.044C242.04 40.5919 242.49 41.0353 243.047 41.0353H249.745C250.301 41.0353 250.752 40.5919 250.752 40.044V33.8284C250.752 33.2805 251.202 32.8371 251.759 32.8371H258.096C258.652 32.8371 259.103 33.2805 259.103 33.8284V40.044C259.103 40.5919 259.553 41.0353 260.11 41.0353H266.807C267.364 41.0353 267.814 40.5919 267.814 40.044V33.8284C267.814 33.2805 268.265 32.8371 268.821 32.8371H275.158C275.715 32.8371 276.165 32.3937 276.165 31.8458V25.2535C276.165 24.7056 275.715 24.2622 275.158 24.2622H275.168Z" fill="white"/>
<g clip-path="url(#clip0_35_1038)">
<path d="M310.655 102.369C308.045 99.1064 305.438 95.8406 302.831 92.5777C304.153 87.8929 302.65 84.7864 299.63 81.4792C297.952 79.3787 296.273 77.2752 294.591 75.1747C292.978 73.1539 291.364 71.136 289.751 69.1151C288.17 67.0293 285.587 65.7755 282.437 65.7755C273.112 65.6427 268.752 77.4139 264.955 87.7218C264.425 87.058 263.897 86.3942 263.363 85.7304C258.929 80.5322 251.754 81.494 246.759 88.6157C246.317 88.061 245.873 87.5064 245.431 86.9518C244.662 84.5503 242.969 82.7537 241.421 80.8184C239.478 78.3875 237.538 75.9595 235.596 73.5285C234.059 71.7053 232.719 69.7081 231.046 68.0058C226.256 63.7369 217.675 65.6664 213.642 73.1096C203.142 58.2791 178.531 64.799 168.82 78.355C164.018 74.1333 157.17 71.5991 150.909 71.6168C147.563 72.0682 126.25 70.3925 123.8 72.9385C121.152 70.5371 107.92 71.9826 104.599 71.6139C102.938 71.6139 101.389 72.1184 100.108 72.9828C97.4329 70.5076 84.2077 71.9944 80.8384 71.6139C78.0771 71.6139 75.6332 73.0093 74.1888 75.1246C66.1748 68.9646 48.388 68.885 39.3686 75.6999C28.9255 82.4026 27.1251 97.9942 35.1955 106.727C33.2024 108.237 32.0219 110.594 32.0308 113.09C32.4104 116.863 30.8059 126.136 33.8934 129.059C35.9014 131.573 37.9093 134.084 39.9173 136.597C41.7294 138.863 43.5387 141.129 45.3479 143.394C48.8685 147.619 55.8414 148.542 66.4862 149.129C75.5145 149.008 84.1425 146.147 89.4871 139.4C96.813 150.867 122.047 152.313 131.648 142.379C132.309 143.205 132.971 144.034 133.629 144.861C135.094 146.814 137.435 148.079 140.068 148.079H154.554C162.26 147.581 162.992 141.465 162.592 135.166C165.742 135.175 168.924 134.632 171.917 133.62C173.112 135.113 174.304 136.609 175.497 138.102C183.318 150.13 202.327 151.153 213.452 143.02C217.219 148.477 228.839 148.764 234.448 143.619C239.098 148.761 248.035 148.227 253.16 143.769C257.938 149.531 269.674 147.814 274.782 141.972C284.279 151.802 299.538 147.094 306.731 136.438C314.08 126.307 316.821 111.249 310.658 102.369H310.655Z" fill="#003021"/>
<path d="M63.14 96.2927L57.8132 94.8648C56.1789 94.4282 54.9481 94.2718 54.9481 92.9324C54.9481 91.4691 56.5497 90.9086 59.2012 90.9086C61.5354 90.9086 64.5043 91.5134 67.0195 92.7259C68.4283 93.4045 70.0685 92.4339 70.0685 90.8791V80.2438C70.0685 79.4089 69.5761 78.6418 68.802 78.3232C65.9843 77.1638 60.8977 76.0044 55.7845 76.0044C46.8273 76.0044 35.6516 81.4179 35.6516 92.5253C35.6516 103.013 43.8525 105.769 46.943 106.595L52.8571 108.194C54.3549 108.598 56.1493 109.533 56.1493 111.12C56.1493 112.87 53.8566 113.427 51.3385 113.427C47.8476 113.427 43.5944 112.359 40.5869 110.796C39.2018 110.073 37.5409 111.111 37.5409 112.669V123.523C37.5409 124.411 38.1015 125.204 38.9438 125.499C42.147 126.617 47.9455 127.983 54.2155 127.983C63.4188 127.983 75.4368 123.647 75.4368 111.666C75.4368 102.305 67.6245 97.4963 63.143 96.2986L63.14 96.2927Z" fill="white"/>
<path d="M118.951 77.0903H104.172C103.009 77.0903 102.066 78.0285 102.066 79.1849V108.268C102.066 109.799 101.102 110.79 99.6813 110.79C98.2606 110.79 97.2937 109.799 97.2937 108.268V79.1849C97.2937 78.0285 96.3505 77.0903 95.1879 77.0903H80.4086C79.2459 77.0903 78.3027 78.0285 78.3027 79.1849V110.312C78.3027 117.894 84.1101 127.966 99.6783 127.966C115.247 127.966 121.054 117.894 121.054 110.312V79.1849C121.054 78.0285 120.111 77.0903 118.948 77.0903H118.951Z" fill="white"/>
<path d="M287.389 87.9971C286.417 87.9971 285.378 88.2538 284.275 88.7612C283.172 89.2716 282.11 90.0357 281.084 91.0564C280.674 91.4635 280.238 91.6671 279.776 91.6671C279.518 91.6671 279.313 91.5904 279.162 91.437C279.008 91.2836 278.93 91.1066 278.93 90.903L279.008 90.5962C279.571 88.4042 280.903 85.0145 283.006 80.427C283.107 80.1733 283.391 79.5095 283.851 78.4386C284.67 76.6537 285.082 75.1757 285.082 74.0045C285.082 72.1695 284.056 71.252 282.006 71.252C279.957 71.252 278.008 72.6032 276.317 75.3055C274.627 78.0079 272.628 82.4685 270.32 88.6874L265.246 102.984C264.937 104.005 264.682 104.769 264.477 105.279C263.605 106.554 262.772 107.524 261.98 108.185C261.185 108.849 260.251 109.179 259.174 109.179C258.098 109.179 257.11 108.822 256.369 108.108C255.624 107.394 255.253 106.35 255.253 104.972C255.253 104.158 255.393 103.252 255.677 102.258C255.959 101.264 256.38 99.9777 256.947 98.3964C257.561 96.5614 258.009 95.1217 258.293 94.0774C258.575 93.033 258.715 92.027 258.715 91.0564C258.715 89.0179 257.92 87.9971 256.333 87.9971C254.438 87.9971 252.667 89.2716 251.03 91.8205C249.39 94.3695 247.749 98.243 246.109 103.444L246.032 103.751C244.801 107.321 242.651 109.103 239.575 109.103C238.344 109.103 237.499 108.822 237.039 108.262C236.577 107.701 236.348 106.837 236.348 105.663C236.348 104.695 236.476 103.727 236.734 102.757C236.989 101.789 237.425 100.438 238.042 98.7032C238.656 96.8682 239.104 95.4168 239.388 94.3459C239.67 93.2749 239.813 92.1804 239.813 91.0594C239.813 89.0208 239.018 88.0001 237.428 88.0001C235.325 88.0001 233.365 89.4427 231.547 92.3191C229.725 95.1985 227.895 99.5204 226.051 105.279C224.36 107.878 222.284 109.179 219.825 109.179C218.49 109.179 217.556 108.849 217.019 108.185C216.482 107.521 216.213 106.604 216.213 105.433C216.213 104.158 216.521 102.477 217.135 100.388C218.722 94.576 221.72 87.2625 226.128 78.4445C227 76.7629 227.436 75.3085 227.436 74.0871C227.436 72.2019 226.386 71.2579 224.283 71.2579C222.438 71.2579 220.748 72.3022 219.208 74.3939C217.672 76.4856 216.171 79.3767 214.712 83.0733C213.253 86.7698 211.162 92.5433 208.448 100.391L206.819 105.102C206.772 105.158 206.724 105.22 206.68 105.285C205.5 107.07 203.72 108.344 201.338 109.108C198.957 109.873 196.406 110.256 193.689 110.256C188.819 110.256 185.091 109.07 182.505 106.701C179.915 104.329 178.622 101.338 178.622 97.7179C178.622 95.2221 179.159 92.8118 180.236 90.4929C181.312 88.1741 182.798 86.3126 184.693 84.9112C186.589 83.5099 188.665 82.8078 190.919 82.8078C192.251 82.8078 193.315 83.1264 194.11 83.7636C194.905 84.4009 195.303 85.3567 195.303 86.6312C195.303 88.416 194.558 90.7083 193.072 93.5139C192.868 94.0243 192.764 94.3813 192.764 94.5848C192.764 95.1453 193.034 95.6292 193.571 96.0392C194.107 96.4464 194.787 96.6499 195.608 96.6499C197.554 96.6499 199.606 95.9625 201.757 94.5848C203.91 93.21 205.716 91.3219 207.175 88.9264C208.638 86.5309 209.367 83.9318 209.367 81.1262C209.367 77.763 208.124 75.099 205.639 73.1371C203.154 71.1753 199.529 70.1929 194.763 70.1929C189.587 70.1929 184.679 71.8125 180.043 75.0488C175.404 78.2852 171.688 82.6072 168.897 88.0089C168.885 88.0325 168.873 88.0561 168.861 88.0827C165.32 80.6718 156.968 77.1022 150.484 77.1022H127.798C126.635 77.1022 125.692 78.0403 125.692 79.1968V124.848C125.692 126.004 126.635 126.942 127.798 126.942H142.283C143.446 126.942 144.389 126.004 144.389 124.848V116.121C144.389 114.965 145.332 114.026 146.495 114.026H150.404C155.099 114.026 160.746 112.398 164.869 108.802C165.361 114.369 167.049 118.667 169.941 121.688C173.426 125.334 178.038 127.155 183.777 127.155C189.516 127.155 194.576 125.5 198.805 122.184C200.695 120.703 202.492 118.885 204.2 116.735C204.165 117.289 204.147 117.832 204.147 118.36C204.147 123.611 206.579 126.234 211.449 126.234C214.113 126.234 216.509 125.367 218.636 123.635C220.762 121.903 222.503 119.941 223.862 117.749C224.028 117.481 224.197 117.204 224.363 116.923C224.363 116.971 224.363 117.015 224.363 117.059C224.363 120.118 224.95 122.399 226.131 123.904C227.308 125.408 228.975 126.16 231.128 126.16C233.845 126.16 236.203 125.09 238.199 122.948C240.195 120.806 241.966 118.08 243.502 114.767C243.348 115.888 243.271 116.935 243.271 117.903C243.271 123.461 245.475 126.237 249.882 126.237C252.545 126.237 254.942 125.37 257.068 123.638C259.195 121.906 260.936 119.944 262.294 117.752C262.653 117.174 263.015 116.566 263.38 115.932C263.855 118.502 264.937 120.691 266.64 122.493C268.995 124.992 272.02 126.24 275.709 126.24C278.168 126.24 280.63 125.476 283.089 123.945C285.548 122.417 287.751 120.325 289.7 117.676C293.149 113.153 294.158 108.884 294.158 108.884C295.234 105.521 295.771 102.181 295.771 98.8685C295.771 91.6317 292.977 88.0119 287.392 88.0119L287.389 87.9971ZM147.705 99.8184H146.486C145.323 99.8184 144.38 98.8803 144.38 97.7238V93.3694C144.38 92.2129 145.323 91.2747 146.486 91.2747H147.705C149.85 91.2747 151.413 93.0242 151.413 95.5466C151.413 98.069 149.85 99.8184 147.705 99.8184ZM284.391 106.501C283.827 107.622 283.044 108.554 282.045 109.291C281.045 110.032 279.93 110.401 278.702 110.401C277.32 110.401 276.306 110.017 275.665 109.253C275.024 108.489 274.704 107.495 274.704 106.27C274.704 104.486 275.306 102.857 276.51 101.376C277.714 99.8981 279.212 99.1576 281.007 99.1576C282.442 99.1576 283.504 99.5411 284.198 100.305C284.889 101.069 285.236 102.04 285.236 103.211C285.236 104.282 284.954 105.377 284.391 106.498V106.501Z" fill="white"/>
</g>
<defs>
<clipPath id="clip0_35_1038">
<rect width="283.9" height="84.4868" fill="white" transform="translate(30.1589 64.6431)"/>
</clipPath>
</defs>
</svg>
