<svg width="201" height="141" viewBox="0 0 201 141" fill="none" xmlns="http://www.w3.org/2000/svg">
<rect x="0.0722656" y="0.837158" width="200.853" height="139.66" rx="6.10557" fill="white"/>
<path d="M100.567 61.4561C97.996 58.7582 96.7148 54.6847 96.7148 49.2479C96.7148 44.7556 97.7455 40.5055 99.8028 36.5018C101.86 32.4981 104.599 29.2992 108.016 26.9011C111.432 24.503 115.05 23.304 118.865 23.304C122.375 23.304 125.049 24.0308 126.88 25.4844C128.712 26.9381 129.627 28.9132 129.627 31.4058C129.627 33.4836 129.089 35.4095 128.013 37.1834C126.938 38.9574 125.607 40.3535 124.018 41.376C122.433 42.3944 120.922 42.9036 119.485 42.9036C118.881 42.9036 118.38 42.7517 117.982 42.4519C117.583 42.148 117.386 41.7908 117.386 41.376C117.386 41.2241 117.46 40.9613 117.612 40.5835C118.708 38.5057 119.255 36.8057 119.255 35.4834C119.255 34.5389 118.963 33.8327 118.376 33.3604C117.789 32.8882 117.008 32.6541 116.027 32.6541C114.364 32.6541 112.836 33.1715 111.44 34.2104C110.044 35.2493 108.948 36.6291 108.155 38.3455C107.363 40.0661 106.964 41.8483 106.964 43.7002C106.964 46.3817 107.917 48.5991 109.826 50.3566C111.732 52.1141 114.479 52.9888 118.068 52.9888C120.068 52.9888 121.948 52.7055 123.706 52.1388C125.463 51.5721 126.773 50.6276 127.644 49.3054C127.87 48.9646 128.174 48.7962 128.551 48.7962C129.04 48.7962 129.488 49.0221 129.882 49.4779C130.28 49.9296 130.383 50.3484 130.194 50.7221C127.738 55.6702 124.954 59.3701 121.838 61.8257C118.721 64.2813 115.029 65.5091 110.763 65.5091C106.496 65.5091 103.133 64.1581 100.567 61.4602V61.4561Z" fill="#003021"/>
<path d="M125.777 58.9923C125.777 56.2 126.417 52.9683 127.703 49.3054L128.951 45.6795C130.951 39.8649 132.491 35.5861 133.567 32.8472C134.642 30.1082 135.747 27.9688 136.88 26.4166C138.014 24.8685 139.258 24.0924 140.617 24.0924C142.165 24.0924 142.941 24.7905 142.941 26.1866C142.941 27.0942 142.621 28.17 141.981 29.4142C138.732 35.9475 136.523 41.3678 135.353 45.6713C134.901 47.2194 134.671 48.4677 134.671 49.4081C134.671 50.2786 134.868 50.9562 135.267 51.4489C135.665 51.9417 136.351 52.184 137.336 52.184C139.147 52.184 140.679 51.219 141.923 49.2931C142.149 48.9523 142.453 48.7839 142.831 48.7839C143.36 48.7839 143.82 49.0098 144.218 49.4656C144.617 49.9173 144.699 50.3361 144.473 50.7098L143.397 52.804C142.338 54.9927 141.311 56.9022 140.309 58.5242C139.307 60.1503 138.022 61.604 136.457 62.8851C134.889 64.1704 133.123 64.811 131.16 64.811C127.571 64.811 125.777 62.8646 125.777 58.9759V58.9923Z" fill="#003021"/>
<path d="M171.15 48.7964C171.679 48.7964 172.139 49.0222 172.538 49.478C172.936 49.9297 173.018 50.3486 172.792 50.7222L171.716 52.8165C170.657 55.0052 169.63 56.9146 168.628 58.5366C167.626 60.1627 166.341 61.6164 164.777 62.8976C163.208 64.1829 161.442 64.8235 159.479 64.8235C156.231 64.8235 154.609 62.7662 154.609 58.6475C154.609 57.9289 154.667 57.1569 154.778 56.3233C153.644 58.7789 152.343 60.7992 150.868 62.3843C149.394 63.9693 147.657 64.7619 145.657 64.7619C144.072 64.7619 142.845 64.2034 141.974 63.0906C141.104 61.9778 140.672 60.2859 140.672 58.0192C140.672 54.8861 141.087 51.9788 141.917 49.2973C143.276 45.0308 144.627 41.8279 145.965 39.6967C147.304 37.5655 148.75 36.4978 150.298 36.4978C151.468 36.4978 152.055 37.2534 152.055 38.7645C152.055 39.594 151.953 40.4071 151.743 41.1996C151.534 41.9921 151.205 43.068 150.753 44.4272C150.302 45.7125 149.977 46.7144 149.793 47.4289C149.604 48.1475 149.509 48.8662 149.509 49.5807C149.509 50.4512 149.678 51.0918 150.018 51.5065C150.359 51.9213 150.979 52.1307 151.887 52.1307C154.154 52.1307 155.739 50.8085 156.646 48.164L156.704 47.9381C157.911 44.0864 159.118 41.216 160.329 39.3271C161.537 37.4382 162.843 36.4937 164.239 36.4937C165.409 36.4937 165.996 37.2493 165.996 38.7604C165.996 39.479 165.894 40.2223 165.684 40.9984C165.475 41.7745 165.146 42.838 164.695 44.1972C164.28 45.3675 163.968 46.3202 163.758 47.0594C163.549 47.7944 163.446 48.4678 163.446 49.0715C163.446 50.0899 163.721 50.866 164.267 51.3957C164.814 51.9254 165.503 52.1882 166.337 52.1882C167.171 52.1882 167.819 51.9418 168.407 51.4532C168.994 50.9645 169.606 50.2459 170.246 49.3014C170.472 48.9606 170.776 48.7922 171.154 48.7922L171.15 48.7964Z" fill="#003021"/>
<path d="M188.825 58.4832C187.388 60.4461 185.766 61.9942 183.955 63.1275C182.144 64.2609 180.329 64.8275 178.518 64.8275C175.8 64.8275 173.57 63.9036 171.833 62.0517C170.096 60.2038 169.226 57.8016 169.226 54.8573C169.226 53.1203 169.566 51.2684 170.244 49.3055C170.396 48.9277 170.585 48.3611 170.811 47.6055L174.547 37.0111C176.247 32.4038 177.722 29.0982 178.966 27.0984C180.21 25.0986 181.61 24.0966 183.158 24.0966C184.707 24.0966 185.425 24.7783 185.425 26.1375C185.425 27.008 185.121 28.1003 184.518 29.4226C184.177 30.2151 183.971 30.7079 183.893 30.8967C182.345 34.2968 181.364 36.8058 180.949 38.4319L180.892 38.6578C180.892 38.8097 180.949 38.9411 181.06 39.0561C181.175 39.171 181.323 39.2244 181.512 39.2244C181.853 39.2244 182.173 39.0725 182.473 38.7727C183.228 38.0172 184.013 37.4505 184.822 37.0727C185.635 36.6949 186.398 36.506 187.117 36.506C191.232 36.506 193.293 39.1875 193.293 44.5504C193.293 47.006 192.895 49.478 192.102 51.9706C192.102 51.9706 191.359 55.1324 188.817 58.4832H188.825ZM178.485 52.2539C178.958 52.8206 179.705 53.1039 180.723 53.1039C181.631 53.1039 182.452 52.8288 183.187 52.2826C183.922 51.7365 184.497 51.0466 184.916 50.2171C185.331 49.3877 185.54 48.5746 185.54 47.7821C185.54 46.9115 185.286 46.197 184.776 45.6303C184.267 45.0637 183.483 44.7803 182.423 44.7803C181.101 44.7803 179.997 45.3306 179.11 46.4229C178.223 47.5193 177.779 48.7265 177.779 50.0488C177.779 50.9563 178.013 51.6913 178.485 52.258V52.2539Z" fill="#003021"/>
<path d="M35.7261 53.9505C35.7261 62.4338 27.2591 65.5091 20.7759 65.5091C16.3618 65.5091 12.2764 64.5435 10.0207 63.7524C9.42834 63.5455 9.03075 62.9815 9.03075 62.3527V54.6646C9.03075 53.5611 10.1992 52.8267 11.1769 53.3379C13.2947 54.4455 16.2888 55.2001 18.7514 55.2001C20.5244 55.2001 22.1431 54.8066 22.1431 53.5651C22.1431 52.4413 20.8814 51.78 19.8266 51.492L15.66 50.3601C13.4813 49.7758 7.7041 47.8203 7.7041 40.396C7.7041 32.5293 15.5748 28.6954 21.8875 28.6954C25.4902 28.6954 29.0726 29.519 31.0565 30.3385C31.6042 30.5657 31.949 31.1094 31.949 31.6976V39.2275C31.949 40.331 30.7927 41.0167 29.8028 40.5379C28.0299 39.6779 25.9405 39.2519 24.2974 39.2519C22.4312 39.2519 21.3033 39.6495 21.3033 40.684C21.3033 41.6334 22.1715 41.7429 23.3197 42.0512L27.0724 43.0614C30.2288 43.9094 35.7302 47.3173 35.7302 53.9465L35.7261 53.9505Z" fill="#003021"/>
<path d="M54.936 29.4705L65.3464 29.4705C66.1659 29.4705 66.8272 30.1359 66.8272 30.9513V52.9933C66.8272 58.3607 62.7377 65.4971 51.7715 65.4971C40.8053 65.4971 36.7158 58.3648 36.7158 52.9933V30.9513C36.7158 30.1318 37.3812 29.4705 38.1966 29.4705H48.607C49.4265 29.4705 50.0878 30.1359 50.0878 30.9513V51.5449C50.0878 52.6281 50.7654 53.33 51.7675 53.33C52.7695 53.33 53.4471 52.6281 53.4471 51.5449V30.9513C53.4471 30.1318 54.1124 29.4705 54.9279 29.4705H54.936Z" fill="#003021"/>
<path d="M100.678 42.794C100.678 51.8291 92.4663 55.6183 86.466 55.6183H83.7153C82.8957 55.6183 82.2345 56.2837 82.2345 57.0992V63.278C82.2345 64.0976 81.5691 64.7589 80.7536 64.7589H70.5502C69.7306 64.7589 69.0693 64.0935 69.0693 63.278V30.9474C69.0693 30.1279 69.7347 29.4666 70.5502 29.4666H86.5309C92.4866 29.4666 100.682 33.763 100.682 42.79L100.678 42.794ZM87.1841 42.5425C87.1841 40.7574 86.0805 39.5159 84.5713 39.5159H83.7112C82.8917 39.5159 82.2304 40.1813 82.2304 40.9967V44.0801C82.2304 44.8996 82.8957 45.5609 83.7112 45.5609H84.5713C86.0805 45.5609 87.1841 44.3195 87.1841 42.5344V42.5425Z" fill="#003021"/>
<rect x="7.7041" y="8.46924" width="185.588" height="6.96022" rx="0.812897" fill="#003021"/>
<rect x="7.7041" y="129.153" width="185.588" height="3.71174" rx="0.812897" fill="#003021"/>
<path fill-rule="evenodd" clip-rule="evenodd" d="M151.619 76.7336C152.068 76.7336 152.432 77.0976 152.432 77.5465L152.432 86.1351C152.432 86.584 152.068 86.948 151.619 86.948L143.03 86.948C142.581 86.948 142.218 86.584 142.218 86.1351L142.218 77.5465C142.218 77.0976 142.581 76.7336 143.03 76.7336L151.619 76.7336ZM90.3348 76.7336C90.7837 76.7336 91.1477 77.0976 91.1477 77.5465V86.1351C91.1477 86.584 90.7837 86.948 90.3348 86.948L81.7462 86.948C81.2973 86.948 80.9333 86.584 80.9333 86.1351V77.5465C80.9333 77.0976 81.2973 76.7336 81.7462 76.7336L90.3348 76.7336ZM49.4785 86.9482C49.9275 86.9482 50.2914 86.5843 50.2914 86.1353V77.5468C50.2914 77.0978 49.9275 76.7339 49.4785 76.7339L40.89 76.7339C40.441 76.7339 40.0771 77.0978 40.0771 77.5468V86.1353C40.0771 86.5843 40.441 86.9482 40.89 86.9482H49.4785ZM69.9059 86.9484C70.3549 86.9484 70.7188 86.5844 70.7188 86.1355L70.7188 77.5469C70.7188 77.098 70.3549 76.734 69.9059 76.734L61.3174 76.734C60.8684 76.734 60.5045 77.098 60.5045 77.5469V86.1355C60.5045 86.5844 60.8684 86.9484 61.3174 86.9484L69.9059 86.9484ZM131.191 86.9485C131.64 86.9485 132.004 86.5845 132.004 86.1356L132.004 77.547C132.004 77.0981 131.64 76.7341 131.191 76.7341L122.602 76.7341C122.153 76.7341 121.789 77.0981 121.789 77.547L121.789 86.1356C121.789 86.5845 122.153 86.9485 122.602 86.9485L131.191 86.9485ZM172.047 76.7339C172.496 76.7339 172.86 77.0978 172.86 77.5468V86.1353C172.86 86.5843 172.496 86.9482 172.047 86.9482L163.458 86.9482C163.009 86.9482 162.645 86.5843 162.645 86.1353L162.645 77.5468C162.645 77.0978 163.009 76.7339 163.458 76.7339L172.047 76.7339ZM59.6927 97.1629C60.1416 97.1629 60.5056 96.799 60.5056 96.35L60.5056 87.7615C60.5056 87.3125 60.1416 86.9486 59.6927 86.9486H51.1041C50.6552 86.9486 50.2912 87.3125 50.2912 87.7615V96.35C50.2912 96.799 50.6552 97.1629 51.1041 97.1629L59.6927 97.1629ZM39.2645 86.9483C39.7135 86.9483 40.0774 87.3123 40.0774 87.7612V96.3498C40.0774 96.7987 39.7135 97.1627 39.2645 97.1627L30.676 97.1627C30.227 97.1627 29.8631 96.7987 29.8631 96.3498L29.8631 87.7612C29.8631 87.3123 30.227 86.9483 30.676 86.9483L39.2645 86.9483ZM110.763 86.9483C111.212 86.9483 111.576 86.5843 111.576 86.1354L111.576 77.5468C111.576 77.0979 111.212 76.7339 110.763 76.7339L102.174 76.7339C101.725 76.7339 101.361 77.0979 101.361 77.5468L101.361 86.1354C101.361 86.5843 101.725 86.9483 102.174 86.9483L110.763 86.9483ZM192.475 86.9485C192.924 86.9485 193.288 86.5846 193.288 86.1356V77.5471C193.288 77.0981 192.924 76.7342 192.475 76.7342L183.887 76.7342C183.438 76.7342 183.074 77.0981 183.074 77.5471L183.074 86.1356C183.074 86.5846 183.438 86.9485 183.887 86.9485L192.475 86.9485ZM29.0506 76.7336C29.4995 76.7336 29.8635 77.0976 29.8635 77.5465L29.8635 86.1351C29.8635 86.584 29.4995 86.948 29.0506 86.948L20.462 86.948C20.0131 86.948 19.6491 86.584 19.6491 86.1351V77.5465C19.6491 77.0976 20.0131 76.7336 20.462 76.7336L29.0506 76.7336ZM100.549 97.1627C100.998 97.1627 101.362 96.7988 101.362 96.3498L101.362 87.7613C101.362 87.3123 100.998 86.9484 100.549 86.9484H91.9604C91.5114 86.9484 91.1475 87.3123 91.1475 87.7613V96.3498C91.1475 96.7988 91.5114 97.1627 91.9604 97.1627L100.549 97.1627ZM141.405 86.9481C141.854 86.9481 142.218 87.3121 142.218 87.761V96.3496C142.218 96.7985 141.854 97.1625 141.405 97.1625L132.817 97.1625C132.368 97.1625 132.004 96.7985 132.004 96.3496V87.761C132.004 87.3121 132.368 86.9481 132.817 86.9481L141.405 86.9481ZM182.261 97.163C182.71 97.163 183.074 96.799 183.074 96.3501L183.074 87.7615C183.074 87.3126 182.71 86.9486 182.261 86.9486H173.673C173.224 86.9486 172.86 87.3126 172.86 87.7615L172.86 96.3501C172.86 96.799 173.224 97.163 173.673 97.163L182.261 97.163ZM80.1209 86.9481C80.5699 86.9481 80.9338 87.3121 80.9338 87.761L80.9338 96.3496C80.9338 96.7985 80.5699 97.1625 80.1209 97.1625L71.5324 97.1625C71.0834 97.1625 70.7195 96.7985 70.7195 96.3496V87.761C70.7195 87.3121 71.0834 86.9481 71.5324 86.9481H80.1209ZM120.977 97.1629C121.426 97.1629 121.79 96.799 121.79 96.35L121.79 87.7615C121.79 87.3125 121.426 86.9486 120.977 86.9486H112.388C111.939 86.9486 111.575 87.3125 111.575 87.7615V96.35C111.575 96.799 111.939 97.1629 112.388 97.1629L120.977 97.1629ZM161.833 86.9484C162.282 86.9484 162.646 87.3124 162.646 87.7613V96.3499C162.646 96.7988 162.282 97.1628 161.833 97.1628H153.245C152.796 97.1628 152.432 96.7988 152.432 96.3499V87.7613C152.432 87.3124 152.796 86.9484 153.245 86.9484H161.833ZM18.8355 97.163C19.2845 97.163 19.6484 96.7991 19.6484 96.3501V87.7616C19.6484 87.3126 19.2845 86.9487 18.8355 86.9487L10.247 86.9487C9.79803 86.9487 9.43408 87.3126 9.43408 87.7616L9.43408 96.3501C9.43408 96.7991 9.79803 97.163 10.247 97.163L18.8355 97.163Z" fill="#003021"/>
<path d="M184.591 122.499C179.016 122.48 176.294 120.914 176.13 117.048C176.111 116.612 176.475 116.267 176.911 116.267H180.694C181.13 116.267 181.456 116.645 181.711 117C182.094 117.533 182.977 117.836 184.591 117.864C186.524 117.884 187.352 117.371 187.352 116.78C187.352 116.464 187.273 115.912 185.774 115.715L183.605 115.379C180.489 114.886 176.505 114.669 176.505 110.212C176.505 106.879 179.167 104.828 184.65 104.828C189.268 104.828 192.567 105.954 192.805 110.229C192.829 110.668 192.464 111.021 192.024 111.021H188.167C187.775 111.021 187.461 110.721 187.242 110.396C186.845 109.806 185.998 109.463 184.512 109.463C182.836 109.463 182.224 109.936 182.224 110.528C182.224 110.804 182.362 111.356 183.486 111.534L185.222 111.81C188.555 112.362 193.288 112.303 193.288 117.036C193.288 120.744 190.448 122.519 184.591 122.499Z" fill="#003021"/>
<path d="M160.533 121.946C160.084 121.946 159.72 121.582 159.72 121.134V106.193C159.72 105.744 160.084 105.38 160.533 105.38H174.152C174.601 105.38 174.965 105.744 174.965 106.193V109.32C174.965 109.769 174.601 110.133 174.152 110.133H166.484C166.038 110.133 165.676 110.495 165.676 110.942V110.942C165.676 111.388 166.038 111.75 166.484 111.75H173.797C174.246 111.75 174.61 112.114 174.61 112.563V114.763C174.61 115.212 174.246 115.576 173.797 115.576H166.474C166.033 115.576 165.676 115.934 165.676 116.375V116.375C165.676 116.816 166.033 117.174 166.474 117.174H174.152C174.601 117.174 174.965 117.538 174.965 117.987V121.134C174.965 121.582 174.601 121.946 174.152 121.946H160.533Z" fill="#003021"/>
<path d="M144.394 121.946C143.945 121.946 143.582 121.583 143.582 121.134V106.193C143.582 105.744 143.945 105.38 144.394 105.38H148.725C149.174 105.38 149.537 105.744 149.537 106.193V116.164C149.537 116.613 149.901 116.977 150.35 116.977H157.323C157.772 116.977 158.136 117.341 158.136 117.79V121.134C158.136 121.583 157.772 121.946 157.323 121.946H144.394Z" fill="#003021"/>
<path d="M127.611 121.947C127.162 121.947 126.798 121.583 126.798 121.134V106.194C126.798 105.745 127.162 105.381 127.611 105.381H141.23C141.679 105.381 142.043 105.745 142.043 106.194V109.321C142.043 109.77 141.679 110.134 141.23 110.134H133.562C133.116 110.134 132.754 110.496 132.754 110.942V110.942C132.754 111.389 133.116 111.751 133.562 111.751H140.875C141.324 111.751 141.688 112.115 141.688 112.564V114.764C141.688 115.213 141.324 115.577 140.875 115.577H133.553C133.111 115.577 132.754 115.934 132.754 116.375V116.375C132.754 116.817 133.111 117.174 133.553 117.174H141.23C141.679 117.174 142.043 117.538 142.043 117.987V121.134C142.043 121.583 141.679 121.947 141.23 121.947H127.611Z" fill="#003021"/>
<path d="M124.36 112.658C124.809 112.658 125.173 113.022 125.173 113.47V121.134C125.173 121.583 124.809 121.946 124.36 121.946H122.879C122.442 121.946 122.083 121.601 122.066 121.165L122.019 119.935C122.018 119.913 122 119.895 121.978 119.895V119.895C121.966 119.895 121.954 119.901 121.946 119.911C120.781 121.402 118.753 122.499 115.884 122.499C110.776 122.499 106.852 119.008 106.852 113.663C106.852 108.319 110.559 104.828 116.417 104.828C120.162 104.828 124.01 106.52 124.985 110.43C125.103 110.905 124.721 111.336 124.232 111.336H119.767C119.435 111.336 119.141 111.124 118.916 110.879C118.487 110.411 117.683 109.975 116.555 109.975C114.326 109.975 112.768 111.376 112.768 113.663C112.768 115.931 114.365 117.351 116.377 117.351C116.802 117.351 118.045 117.316 118.856 116.509C119.248 116.118 118.864 115.557 118.31 115.557H116.973C116.524 115.557 116.16 115.193 116.16 114.744V113.47C116.16 113.022 116.524 112.658 116.973 112.658H124.36Z" fill="#003021"/>
<path d="M88.4735 121.947C88.0246 121.947 87.6606 121.583 87.6606 121.134V106.194C87.6606 105.745 88.0246 105.381 88.4735 105.381H94.0162C94.306 105.381 94.5738 105.535 94.7193 105.786L99.1557 113.43C99.2184 113.538 99.3338 113.605 99.4587 113.605V113.605C99.6523 113.605 99.8091 113.448 99.8091 113.254V106.194C99.8091 105.745 100.173 105.381 100.622 105.381H104.814C105.263 105.381 105.627 105.745 105.627 106.194V121.134C105.627 121.583 105.263 121.947 104.814 121.947H99.4018C99.1162 121.947 98.8515 121.797 98.7046 121.552L94.11 113.888C94.0486 113.786 93.9379 113.723 93.8185 113.723V113.723C93.6307 113.723 93.4785 113.875 93.4785 114.063V121.134C93.4785 121.583 93.1146 121.947 92.6656 121.947H88.4735Z" fill="#003021"/>
<path d="M81.1576 121.947C80.8033 121.947 80.4897 121.717 80.3827 121.379L80.1111 120.522C80.0041 120.185 79.6906 119.955 79.3362 119.955H73.7817C73.4274 119.955 73.1138 120.185 73.0068 120.522L72.7352 121.379C72.6282 121.717 72.3147 121.947 71.9603 121.947H67.5597C66.9965 121.947 66.6039 121.388 66.7951 120.858L72.1843 105.918C72.3005 105.596 72.6063 105.381 72.9489 105.381H80.1696C80.5119 105.381 80.8175 105.595 80.934 105.917L86.341 120.857C86.5328 121.387 86.1402 121.947 85.5766 121.947H81.1576ZM74.9249 114.497C74.7576 115.022 75.1489 115.557 75.6993 115.557H77.4186C77.969 115.557 78.3603 115.022 78.193 114.497L77.2275 111.47C77.1347 111.179 76.8644 110.982 76.559 110.982V110.982C76.2535 110.982 75.9832 111.179 75.8904 111.47L74.9249 114.497Z" fill="#003021"/>
<path d="M51.708 122.499C46.1333 122.481 43.411 120.914 43.2471 117.048C43.2287 116.612 43.5922 116.267 44.0285 116.267H47.811C48.2473 116.267 48.5729 116.646 48.8277 117C49.2115 117.533 50.0938 117.836 51.708 117.865C53.6407 117.884 54.469 117.372 54.469 116.78C54.469 116.464 54.3901 115.912 52.8913 115.715L50.7219 115.38C47.6059 114.887 43.6222 114.67 43.6222 110.213C43.6222 106.88 46.2846 104.829 51.7672 104.829C56.3851 104.829 59.6844 105.954 59.9222 110.229C59.9466 110.669 59.5815 111.021 59.1415 111.021H55.2843C54.892 111.021 54.5787 110.721 54.3594 110.396C53.9617 109.806 53.1154 109.463 51.6291 109.463C49.9528 109.463 49.3414 109.937 49.3414 110.528C49.3414 110.804 49.4795 111.356 50.6036 111.534L52.3391 111.81C55.672 112.362 60.4052 112.303 60.4052 117.036C60.4052 120.744 57.5653 122.519 51.708 122.499Z" fill="#003021"/>
<path d="M32.9996 122.499C27.2211 122.499 23.5332 119.008 23.5332 113.663C23.5332 108.319 27.2211 104.828 32.9996 104.828C38.7977 104.828 42.4856 108.319 42.4856 113.663C42.4856 119.008 38.7977 122.499 32.9996 122.499ZM32.9996 117.351C34.9126 117.351 36.5494 116.069 36.5494 113.663C36.5494 111.257 34.9126 109.975 32.9996 109.975C31.1063 109.975 29.4497 111.257 29.4497 113.663C29.4497 116.069 31.1063 117.351 32.9996 117.351Z" fill="#003021"/>
<path d="M9.17569 121.947C8.72674 121.947 8.36279 121.583 8.36279 121.134V106.194C8.36279 105.745 8.72674 105.381 9.17569 105.381H13.5058C13.9548 105.381 14.3187 105.745 14.3187 106.194V116.164C14.3187 116.613 14.6827 116.977 15.1316 116.977H22.1044C22.5534 116.977 22.9173 117.341 22.9173 117.79V121.134C22.9173 121.583 22.5534 121.947 22.1044 121.947H9.17569Z" fill="#003021"/>
</svg>
