<svg width="80" height="80" viewBox="0 0 80 80" fill="none" xmlns="http://www.w3.org/2000/svg">
<path d="M50.7832 58.1367C50.3097 57.9794 49.9927 57.5335 49.9996 57.0347L50.0099 56.2911C50.0169 55.7922 49.6998 55.3463 49.2263 55.1891L43.4047 53.2552C42.9313 53.0979 42.4104 53.2655 42.1175 53.6693L41.6809 54.2713C41.3879 54.6751 40.8671 54.8427 40.3936 54.6854L35.9734 53.2171C35.2208 52.9671 34.9444 52.0461 35.4349 51.423L46.544 37.3113C46.8424 36.9323 47.3464 36.7811 47.8041 36.9331L55.4685 39.4791C55.9258 39.6311 56.239 40.0532 56.2518 40.5349L56.7283 58.4952C56.7493 59.2884 55.9764 59.8618 55.2234 59.6117L50.7832 58.1367ZM46.6759 47.403C46.2197 48.0294 46.5048 48.9187 47.2402 49.163L48.6018 49.6153C49.3372 49.8596 50.0977 49.3177 50.107 48.5428L50.1477 45.142C50.1519 44.7883 49.9269 44.4725 49.5913 44.361C49.2556 44.2496 48.8864 44.3679 48.6782 44.6538L46.6759 47.403Z" fill="#003021"/>
<path d="M19.1118 35.7657C18.5119 35.5664 18.1872 34.9186 18.3864 34.3187L23.7123 18.2859C23.9116 17.6861 24.5594 17.3613 25.1593 17.5606L29.5321 19.0132C30.132 19.2125 30.4567 19.8603 30.2575 20.4602L26.7458 31.0314C26.5466 31.6313 26.8713 32.2791 27.4712 32.4784L34.7482 34.8957C35.3481 35.095 35.6728 35.7428 35.4735 36.3426L34.3809 39.6319C34.1816 40.2317 33.5338 40.5565 32.9339 40.3572L19.1118 35.7657Z" fill="#003021"/>
<path fill-rule="evenodd" clip-rule="evenodd" d="M53.9213 65.7314C61.4946 65.9943 67.221 63.6526 70.0413 59.2822C72.8617 54.9117 72.6362 48.7291 69.2764 41.9367C65.9391 35.1896 59.6545 28.212 51.1476 22.7223C42.6408 17.2327 33.6936 14.3809 26.1707 14.1197C18.5975 13.8568 12.871 16.1984 10.0507 20.5689C7.23033 24.9393 7.45585 31.1219 10.8156 37.9143C14.1529 44.6614 20.4376 51.6391 28.9444 57.1287C37.4512 62.6184 46.3984 65.4702 53.9213 65.7314ZM27.8058 58.8932C45.3462 70.2124 65.0457 70.8963 71.8058 60.4208C78.5659 49.9453 69.8267 32.2771 52.2862 20.9579C34.7458 9.63866 15.0463 8.95471 8.28624 19.4302C1.52614 29.9058 10.2653 47.5739 27.8058 58.8932Z" fill="#003021"/>
</svg>
