<svg width="120" height="20" viewBox="0 0 120 20" fill="none" xmlns="http://www.w3.org/2000/svg">
<g clip-path="url(#clip0_35_656)">
<path fill-rule="evenodd" clip-rule="evenodd" d="M32.0673 0.075592L21.835 19.9681H12.224L16.5062 11.7238H16.3141C12.7813 16.2844 7.51034 19.2867 0 19.9681V11.8379C0 11.8379 4.80454 11.5557 7.629 8.60256H0V0.0757492H8.57418V7.08892L8.76662 7.08814L12.2703 0.0757492H18.7548V7.04446L18.9472 7.04415L22.5823 0.075592H32.0673Z" fill="#E3DAC5"/>
<path d="M87.8643 17.7721H90.6256V2.00934H87.8643V17.7721Z" fill="#E3DAC5"/>
<path fill-rule="evenodd" clip-rule="evenodd" d="M72.6409 17.6118C73.2412 17.8599 73.8514 17.9839 74.4718 17.9839C75.4968 17.9839 76.4138 17.7358 77.223 17.2396C78.0323 16.7434 78.6594 16.0593 79.1045 15.1876C79.5496 14.309 79.772 13.3132 79.772 12.1999C79.772 11.0867 79.5428 10.0908 79.0843 9.21234C78.6257 8.33384 77.9885 7.65317 77.1725 7.17033C76.3566 6.68078 75.4294 6.43936 74.3908 6.44606C73.73 6.44606 73.0962 6.57348 72.4893 6.82832C71.8823 7.08315 71.3766 7.44528 70.9719 7.9147C70.9407 7.95045 70.9104 7.98655 70.8809 8.023V2.02002H68.1094V17.7727H70.8607L70.8552 16.3011C70.9264 16.3879 71.0024 16.4726 71.0833 16.5555C71.5216 17.0049 72.0408 17.3569 72.6409 17.6118ZM75.4732 15.0668C75.0214 15.3417 74.5055 15.4793 73.9256 15.4793C73.3524 15.4793 72.8264 15.3384 72.3476 15.0567C71.8688 14.7683 71.4878 14.3761 71.2046 13.8798C70.9282 13.3836 70.7899 12.8203 70.7899 12.1899C70.7832 11.5595 70.918 10.9962 71.1945 10.4999C71.4777 9.99696 71.8587 9.60801 72.3375 9.33306C72.8163 9.0514 73.3456 8.91392 73.9256 8.92063C74.5055 8.91392 75.0214 9.04804 75.4732 9.32299C75.9317 9.59123 76.2824 9.97684 76.5252 10.4798C76.7746 10.9761 76.8994 11.5461 76.8994 12.1899C76.8994 12.8336 76.7746 13.4037 76.5252 13.8999C76.2824 14.3962 75.9317 14.7851 75.4732 15.0668Z" fill="#E3DAC5"/>
<path d="M36.0684 2.96497H39.2242L42.0474 13.218L45.0506 2.96497H47.6805L50.9376 13.0122L53.6484 2.96497H56.5412L52.2727 17.7721H49.5517L46.2398 7.95673L43.1995 17.7721H40.4481L36.0684 2.96497Z" fill="#E3DAC5"/>
<path fill-rule="evenodd" clip-rule="evenodd" d="M61.2013 18.0335C60.102 18.0402 59.1108 17.7987 58.2274 17.3092C57.3508 16.813 56.6596 16.1256 56.1538 15.2471C55.6548 14.3686 55.4053 13.366 55.4053 12.2394C55.4053 11.1463 55.6616 10.1571 56.1741 9.27193C56.6865 8.38672 57.3812 7.69599 58.2577 7.19974C59.1344 6.70349 60.1122 6.45535 61.1912 6.45535C62.4049 6.45535 63.4671 6.72361 64.3774 7.26009C65.2945 7.79658 65.9789 8.55773 66.4307 9.54353C66.8893 10.5226 67.0545 11.6459 66.9264 12.9133H58.262C58.2863 13.4183 58.4129 13.8777 58.6422 14.2914C58.8984 14.7475 59.2558 15.1029 59.7143 15.3577C60.1728 15.6125 60.6854 15.7399 61.2518 15.7399C61.6834 15.7333 62.0846 15.6595 62.4555 15.5187C62.8264 15.3712 63.1399 15.1733 63.3963 14.9252C63.6592 14.6771 63.8446 14.3954 63.9525 14.0803H66.8455C66.6702 14.8514 66.3195 15.5388 65.7935 16.1424C65.2675 16.7392 64.6066 17.2052 63.8109 17.5406C63.0152 17.8759 62.1453 18.0402 61.2013 18.0335ZM58.6523 10.1471C58.4906 10.4273 58.3787 10.7291 58.3164 11.0524H64.0597C64.018 10.644 63.8913 10.2718 63.6794 9.93584C63.4367 9.54018 63.1063 9.23504 62.6882 9.02046C62.2701 8.79915 61.7981 8.6885 61.2721 8.6885C60.7124 8.6885 60.2033 8.81592 59.7447 9.07075C59.2862 9.32559 58.9219 9.68436 58.6523 10.1471Z" fill="#E3DAC5"/>
<path d="M81.8056 6.68681C81.8056 5.78818 82.0114 4.99015 82.4227 4.29272C82.8341 3.58857 83.4106 3.04202 84.1524 2.65307C84.9008 2.2574 85.7742 2.05287 86.7722 2.03946V4.48383C86.3068 4.49054 85.9091 4.58779 85.5786 4.77556C85.2549 4.95662 85.0054 5.22151 84.8301 5.57023C84.6686 5.89127 84.5815 6.26346 84.5687 6.68681H86.7115V9.01048H84.5671V17.7721H81.8056V9.01048H80.0254V6.68681H81.8056Z" fill="#E3DAC5"/>
<path fill-rule="evenodd" clip-rule="evenodd" d="M97.6457 18.0138C96.5196 18.0138 95.5115 17.7689 94.6213 17.2794C93.738 16.7832 93.0434 16.0991 92.5376 15.2274C92.0386 14.3488 91.7891 13.353 91.7891 12.2398C91.7891 11.1199 92.0386 10.1206 92.5376 9.24213C93.0434 8.35693 93.738 7.66955 94.6213 7.18C95.5115 6.69045 96.5196 6.44568 97.6457 6.44568C98.7786 6.44568 99.7902 6.69045 100.68 7.18C101.577 7.66955 102.275 8.35357 102.774 9.23208C103.273 10.1106 103.526 11.1131 103.533 12.2398C103.526 13.353 103.273 14.3488 102.774 15.2274C102.282 16.0991 101.587 16.7832 100.69 17.2794C99.7935 17.7689 98.7786 18.0138 97.6457 18.0138ZM97.6457 15.4889C98.2392 15.4889 98.7652 15.3548 99.2237 15.0865C99.6823 14.8116 100.036 14.4293 100.286 13.9398C100.535 13.4435 100.66 12.8769 100.66 12.2398C100.66 11.596 100.535 11.026 100.286 10.5297C100.036 10.0335 99.6823 9.65121 99.2237 9.38296C98.7652 9.10801 98.2392 8.97054 97.6457 8.97054C97.0591 8.97054 96.5365 9.10801 96.0779 9.38296C95.6261 9.65121 95.2754 10.0335 95.0259 10.5297C94.7764 11.026 94.6551 11.596 94.6618 12.2398C94.6618 12.8769 94.7865 13.4435 95.0361 13.9398C95.2923 14.4293 95.6429 14.8116 96.0881 15.0865C96.5398 15.3548 97.0591 15.4889 97.6457 15.4889Z" fill="#E3DAC5"/>
<path d="M106.516 6.68747H103.441L106.769 17.7727H109.46L111.649 10.6926L114.012 17.7727H116.662L120 6.68747H117.219L115.325 13.5873L113.233 6.68747H110.542L108.46 13.7394L106.516 6.68747Z" fill="#E3DAC5"/>
</g>
<defs>
<clipPath id="clip0_35_656">
<rect width="120" height="20" fill="white"/>
</clipPath>
</defs>
</svg>
