<svg width="268" height="152" viewBox="0 0 268 152" fill="none" xmlns="http://www.w3.org/2000/svg">
<path d="M134.002 148.905C169.752 148.905 202.266 141.004 225.949 128.08C249.52 115.218 265.002 96.9561 265.002 76.0559C265.002 55.1557 249.52 36.8938 225.949 24.0314C202.266 11.1073 169.752 3.20642 134.002 3.20642C98.253 3.20642 65.7393 11.1073 42.0557 24.0314C18.4853 36.8938 3.00244 55.1557 3.00244 76.0559C3.00244 96.9561 18.4853 115.218 42.0557 128.08C65.7393 141.004 98.253 148.905 134.002 148.905Z" fill="white" stroke="#FF6138" stroke-width="6"/>
<path d="M81.249 77.7888C79.7579 92.0673 64.9967 95.7519 54.1081 94.6099C46.6946 93.8324 40.0027 91.4876 36.3533 89.7586C35.3948 89.3061 34.8262 88.2868 34.9367 87.2284L36.288 74.2883C36.482 72.4309 38.5735 71.4007 40.1258 72.4334C43.488 74.6706 48.384 76.4681 52.52 76.9019C55.4977 77.2142 58.2856 76.837 58.5038 74.7474C58.7013 72.8559 56.6985 71.5206 54.9775 70.85L48.1786 68.2109C44.6222 66.8438 35.2629 62.5348 36.5679 50.0385C37.9506 36.7979 51.8435 31.7313 62.4459 32.8432C68.4966 33.4778 74.3685 35.4951 77.5565 37.2239C78.4364 37.7028 78.92 38.6786 78.8166 39.6687L77.4931 52.3425C77.2991 54.1999 75.2367 55.1503 73.6582 54.1701C70.8317 52.4102 67.3974 51.3251 64.6378 51.0357C61.5034 50.707 59.5393 51.1775 59.3574 52.9188C59.1906 54.5167 60.6295 54.854 62.5036 55.5752L68.6289 57.9365C73.7811 59.9197 82.4217 66.6248 81.2565 77.7827L81.249 77.7888Z" fill="#FF6138"/>
<path d="M117.814 39.9672L135.299 41.8009C136.675 41.9453 137.669 43.1817 137.525 44.5542L133.651 81.6539C132.708 90.6881 124.585 101.979 106.167 100.048C87.7489 98.1158 82.1341 85.3908 83.0783 76.3498L86.9526 39.2501C87.0967 37.8707 88.3304 36.8749 89.7 37.0185L107.184 38.8523C108.561 38.9967 109.555 40.233 109.411 41.6056L105.791 76.2675C105.601 78.0907 106.616 79.3914 108.299 79.5679C109.982 79.7444 111.243 78.6824 111.433 76.8592L115.053 42.1973C115.197 40.8179 116.431 39.8221 117.8 39.9657L117.814 39.9672Z" fill="#FF6138"/>
<path d="M192.297 70.4494C190.709 85.6566 176.252 90.5881 166.174 89.5311L161.554 89.0466C160.178 88.9022 158.95 89.9056 158.807 91.2782L157.721 101.678C157.577 103.057 156.343 104.053 154.973 103.91L137.836 102.112C136.46 101.968 135.466 100.732 135.61 99.3591L141.292 44.9421C141.436 43.5628 142.67 42.5669 144.04 42.7106L170.88 45.5255C180.883 46.5746 193.891 55.2497 192.305 70.4433L192.297 70.4494ZM169.678 67.6491C169.992 64.6445 168.357 62.3606 165.822 62.0948L164.378 61.9432C163.001 61.7989 161.774 62.8023 161.63 64.1748L161.088 69.3646C160.944 70.7439 161.946 71.9742 163.315 72.1178L164.76 72.2693C167.295 72.5352 169.366 70.64 169.68 67.6354L169.678 67.6491Z" fill="#FF6138"/>
<path d="M230.874 69.1051C230.549 69.0633 230.29 68.8162 230.231 68.4944L230.145 68.0148C230.087 67.693 229.827 67.4459 229.502 67.4041L225.515 66.8903C225.19 66.8485 224.876 67.0216 224.739 67.3182L224.533 67.7602C224.395 68.0568 224.081 68.2299 223.757 68.1881L220.729 67.798C220.214 67.7316 219.921 67.1737 220.158 66.7114L225.534 56.2397C225.679 55.9584 225.984 55.7979 226.298 55.8383L231.547 56.5148C231.861 56.5551 232.115 56.7874 232.184 57.0957L234.743 68.5899C234.856 69.0976 234.431 69.5634 233.915 69.497L230.874 69.1051ZM226.885 62.7152C226.67 63.1754 226.965 63.7117 227.469 63.7766L228.402 63.8968C228.905 63.9617 229.327 63.5177 229.235 63.018L228.835 60.8251C228.793 60.5971 228.609 60.4222 228.379 60.3926V60.3926C228.149 60.363 227.926 60.4854 227.828 60.6955L226.885 62.7152Z" fill="#003021"/>
<path d="M207.693 58.6867C207.282 58.6337 206.992 58.2577 207.045 57.8468L208.46 46.8647C208.513 46.4538 208.889 46.1636 209.3 46.2166L212.295 46.6025C212.706 46.6555 212.996 47.0315 212.943 47.4424L212.01 54.6835C211.957 55.0944 212.247 55.4704 212.658 55.5233L217.643 56.1656C218.054 56.2185 218.344 56.5945 218.291 57.0054L218.001 59.2585C217.948 59.6694 217.572 59.9595 217.161 59.9066L207.693 58.6867Z" fill="#003021"/>
<path d="M110.123 125.785C107.23 122.742 105.788 118.148 105.788 112.017C105.788 106.951 106.948 102.158 109.263 97.6425C111.578 93.1273 114.66 89.5198 118.505 86.8154C122.35 84.1109 126.421 82.7587 130.714 82.7587C134.665 82.7587 137.673 83.5783 139.734 85.2177C141.795 86.8571 142.825 89.0845 142.825 91.8955C142.825 94.2388 142.22 96.4107 141.009 98.4112C139.799 100.412 138.301 101.986 136.513 103.139C134.729 104.288 133.029 104.862 131.411 104.862C130.732 104.862 130.168 104.691 129.72 104.353C129.272 104.01 129.05 103.607 129.05 103.139C129.05 102.968 129.133 102.672 129.304 102.246C130.538 99.9024 131.153 97.9852 131.153 96.494C131.153 95.4289 130.825 94.6324 130.164 94.0998C129.503 93.5673 128.625 93.3033 127.521 93.3033C125.649 93.3033 123.93 93.8868 122.359 95.0584C120.788 96.2301 119.554 97.7861 118.662 99.7218C117.77 101.662 117.322 103.672 117.322 105.761C117.322 108.785 118.394 111.285 120.543 113.267C122.687 115.249 125.778 116.236 129.817 116.236C132.068 116.236 134.184 115.916 136.162 115.277C138.14 114.638 139.614 113.573 140.593 112.082C140.847 111.697 141.189 111.508 141.615 111.508C142.164 111.508 142.668 111.762 143.112 112.276C143.56 112.786 143.676 113.258 143.463 113.679C140.7 119.26 137.567 123.432 134.059 126.202C130.552 128.971 126.398 130.355 121.596 130.355C116.795 130.355 113.011 128.832 110.123 125.789V125.785Z" fill="#003021"/>
<path d="M138.491 123.006C138.491 119.857 139.212 116.213 140.658 112.082L142.063 107.993C144.314 101.435 146.047 96.6099 147.257 93.5211C148.468 90.4323 149.711 88.0196 150.986 86.2691C152.262 84.5232 153.662 83.6479 155.191 83.6479C156.934 83.6479 157.807 84.4352 157.807 86.0097C157.807 87.0332 157.446 88.2465 156.726 89.6496C153.07 97.0175 150.584 103.13 149.267 107.984C148.759 109.729 148.5 111.137 148.5 112.198C148.5 113.179 148.722 113.944 149.17 114.499C149.619 115.055 150.39 115.328 151.499 115.328C153.537 115.328 155.261 114.24 156.661 112.068C156.915 111.684 157.257 111.494 157.682 111.494C158.278 111.494 158.796 111.748 159.244 112.263C159.692 112.772 159.785 113.244 159.531 113.666L158.32 116.027C157.128 118.496 155.972 120.649 154.845 122.478C153.717 124.312 152.271 125.952 150.51 127.396C148.745 128.846 146.758 129.568 144.549 129.568C140.511 129.568 138.491 127.373 138.491 122.988V123.006Z" fill="#003021"/>
<path d="M189.551 111.507C190.147 111.507 190.664 111.762 191.113 112.276C191.561 112.785 191.653 113.258 191.399 113.679L190.189 116.041C188.996 118.509 187.841 120.663 186.714 122.492C185.586 124.326 184.14 125.965 182.379 127.41C180.614 128.859 178.627 129.582 176.418 129.582C172.763 129.582 170.938 127.262 170.938 122.617C170.938 121.807 171.002 120.936 171.127 119.996C169.852 122.765 168.387 125.044 166.728 126.831C165.069 128.619 163.114 129.512 160.864 129.512C159.08 129.512 157.698 128.883 156.719 127.628C155.739 126.373 155.254 124.465 155.254 121.908C155.254 118.375 155.721 115.096 156.654 112.072C158.184 107.261 159.704 103.649 161.21 101.245C162.717 98.8417 164.343 97.6377 166.085 97.6377C167.402 97.6377 168.063 98.4898 168.063 100.194C168.063 101.129 167.948 102.046 167.712 102.94C167.476 103.834 167.107 105.047 166.598 106.58C166.09 108.03 165.725 109.159 165.517 109.965C165.305 110.776 165.198 111.586 165.198 112.392C165.198 113.374 165.388 114.096 165.771 114.564C166.155 115.031 166.853 115.268 167.874 115.268C170.425 115.268 172.208 113.777 173.23 110.794L173.294 110.539C174.653 106.196 176.011 102.959 177.375 100.828C178.733 98.6982 180.203 97.6331 181.774 97.6331C183.091 97.6331 183.752 98.4851 183.752 100.189C183.752 101 183.636 101.838 183.4 102.713C183.165 103.588 182.795 104.788 182.287 106.321C181.82 107.641 181.469 108.715 181.233 109.548C180.997 110.377 180.882 111.137 180.882 111.818C180.882 112.966 181.191 113.841 181.806 114.439C182.421 115.036 183.197 115.333 184.135 115.333C185.073 115.333 185.803 115.055 186.464 114.504C187.125 113.952 187.813 113.142 188.534 112.077C188.788 111.693 189.13 111.503 189.555 111.503L189.551 111.507Z" fill="#003021"/>
<path d="M209.441 122.432C207.823 124.646 205.998 126.392 203.96 127.67C201.922 128.948 199.88 129.587 197.842 129.587C194.783 129.587 192.274 128.545 190.319 126.456C188.364 124.372 187.385 121.663 187.385 118.343C187.385 116.384 187.768 114.296 188.531 112.082C188.702 111.656 188.914 111.017 189.168 110.165L193.374 98.2169C195.287 93.021 196.946 89.2931 198.346 87.0378C199.746 84.7825 201.322 83.6526 203.064 83.6526C204.806 83.6526 205.615 84.4213 205.615 85.9542C205.615 86.9359 205.273 88.1678 204.593 89.6589C204.21 90.5527 203.979 91.1084 203.891 91.3214C202.149 95.1558 201.044 97.9853 200.578 99.8192L200.513 100.074C200.513 100.245 200.578 100.393 200.702 100.523C200.832 100.653 200.998 100.713 201.211 100.713C201.594 100.713 201.955 100.542 202.292 100.204C203.142 99.3515 204.025 98.7124 204.935 98.2864C205.85 97.8603 206.71 97.6473 207.518 97.6473C212.149 97.6473 214.468 100.671 214.468 106.719C214.468 109.489 214.02 112.276 213.128 115.087C213.128 115.087 212.292 118.653 209.431 122.432H209.441ZM197.805 115.407C198.336 116.046 199.178 116.366 200.324 116.366C201.345 116.366 202.269 116.055 203.096 115.439C203.923 114.823 204.57 114.045 205.042 113.11C205.508 112.175 205.744 111.258 205.744 110.364C205.744 109.382 205.457 108.576 204.884 107.937C204.311 107.298 203.429 106.979 202.237 106.979C200.749 106.979 199.506 107.599 198.507 108.831C197.509 110.067 197.01 111.429 197.01 112.92C197.01 113.944 197.274 114.773 197.805 115.412V115.407Z" fill="#003021"/>
<path d="M244.045 67.6819C242.654 71.1614 238.984 73.476 233.953 74.2769C228.939 75.0752 222.699 74.3378 216.443 71.8352C210.186 69.3326 205.159 65.5635 202.079 61.527C198.988 57.4774 197.927 53.2708 199.319 49.7914C200.711 46.312 204.38 43.9973 209.411 43.1964C214.425 42.3981 220.665 43.1356 226.922 45.6381C233.178 48.1407 238.205 51.9099 241.286 55.9463C244.376 59.9959 245.437 64.2025 244.045 67.6819Z" stroke="#003021" stroke-width="1.37634"/>
</svg>
