<svg width="339" height="238" viewBox="0 0 339 238" fill="none" xmlns="http://www.w3.org/2000/svg">
<path d="M24.448 233.679L5.09903 214.373C2.42664 211.707 0.928223 208.093 0.928223 204.325L0.928223 14.9161C0.928223 7.06712 7.30317 0.706543 15.1698 0.706543L305.384 0.706543C309.16 0.706543 312.782 2.20492 315.454 4.86795L334.803 24.1733C337.476 26.8396 338.974 30.4538 338.974 34.2214V223.634C338.974 231.483 332.599 237.843 324.733 237.843L34.5154 237.843C30.7393 237.843 27.117 236.345 24.4446 233.682L24.448 233.679Z" fill="#003021"/>
<path d="M8.85742 15.8431C8.85742 11.8623 12.0845 8.63525 16.0652 8.63525L303.657 8.63525C307.637 8.63525 310.864 11.8623 310.864 15.8431V203.967C310.864 207.947 307.637 211.175 303.657 211.175L16.0652 211.175C12.0845 211.175 8.85742 207.947 8.85742 203.967L8.85742 15.8431Z" fill="#E3DAC5"/>
<path d="M278.445 165.231C270.339 165.204 266.323 162.957 265.982 157.429C265.934 156.657 266.582 156.042 267.355 156.042H272.465C273.239 156.042 273.818 156.737 274.346 157.302C274.976 157.977 276.253 158.359 278.445 158.397C281.294 158.426 282.516 157.67 282.516 156.798C282.516 156.333 282.399 155.519 280.189 155.228L276.991 154.733C272.396 154.007 266.523 153.687 266.523 147.115C266.523 142.201 270.448 139.177 278.532 139.177C285.255 139.177 290.083 140.794 290.54 146.904C290.599 147.683 289.949 148.307 289.168 148.307H283.92C283.224 148.307 282.673 147.762 282.233 147.223C281.604 146.453 280.38 146.01 278.328 146.01C275.857 146.01 274.955 146.708 274.955 147.58C274.955 147.987 275.159 148.802 276.816 149.063L279.375 149.47C284.289 150.285 291.268 150.197 291.268 157.176C291.268 162.643 287.081 165.26 278.445 165.231Z" fill="#003021"/>
<path d="M243.215 164.417C242.419 164.417 241.774 163.771 241.774 162.975V141.433C241.774 140.637 242.419 139.991 243.215 139.991H262.81C263.606 139.991 264.251 140.637 264.251 141.433V145.557C264.251 146.354 263.606 146.999 262.81 146.999H251.748C251.089 146.999 250.555 147.533 250.555 148.191V148.191C250.555 148.85 251.089 149.383 251.748 149.383H262.286C263.082 149.383 263.728 150.029 263.728 150.825V153.583C263.728 154.379 263.082 155.025 262.286 155.025H251.733C251.083 155.025 250.555 155.552 250.555 156.202V156.202C250.555 156.853 251.083 157.38 251.733 157.38H262.81C263.606 157.38 264.251 158.025 264.251 158.821V162.975C264.251 163.771 263.606 164.417 262.81 164.417H243.215Z" fill="#003021"/>
<path d="M219.421 164.416C218.624 164.416 217.979 163.771 217.979 162.975V141.432C217.979 140.636 218.624 139.991 219.421 139.991H225.319C226.115 139.991 226.761 140.636 226.761 141.432V155.647C226.761 156.443 227.406 157.089 228.202 157.089H237.997C238.793 157.089 239.439 157.734 239.439 158.53V162.975C239.439 163.771 238.793 164.416 237.997 164.416H219.421Z" fill="#003021"/>
<path d="M194.676 164.416C193.88 164.416 193.234 163.771 193.234 162.975V141.432C193.234 140.636 193.88 139.991 194.676 139.991H214.27C215.066 139.991 215.712 140.636 215.712 141.432V145.557C215.712 146.353 215.066 146.999 214.27 146.999H203.208C202.55 146.999 202.016 147.532 202.016 148.191V148.191C202.016 148.849 202.55 149.383 203.208 149.383H213.747C214.543 149.383 215.188 150.028 215.188 150.824V153.582C215.188 154.379 214.543 155.024 213.747 155.024H203.194C202.543 155.024 202.016 155.551 202.016 156.202V156.202C202.016 156.852 202.543 157.379 203.194 157.379H214.27C215.066 157.379 215.712 158.025 215.712 158.821V162.975C215.712 163.771 215.066 164.416 214.27 164.416H194.676Z" fill="#003021"/>
<path d="M189.398 150.721C190.194 150.721 190.839 151.366 190.839 152.162V162.975C190.839 163.771 190.194 164.416 189.398 164.416H187.69C186.916 164.416 186.279 163.804 186.25 163.03L186.189 161.45C186.188 161.418 186.161 161.392 186.129 161.392V161.392C186.11 161.392 186.093 161.401 186.081 161.415C184.363 163.614 181.374 165.231 177.143 165.231C169.612 165.231 163.826 160.084 163.826 152.204C163.826 144.324 169.292 139.177 177.929 139.177C183.365 139.177 188.948 141.595 190.492 147.17C190.723 148.006 190.044 148.772 189.176 148.772H183.034C182.444 148.772 181.921 148.393 181.5 147.98C180.843 147.337 179.7 146.766 178.132 146.766C174.846 146.766 172.549 148.831 172.549 152.204C172.549 155.548 174.904 157.641 177.87 157.641C178.455 157.641 180.089 157.596 181.276 156.624C182.036 156.001 181.366 154.995 180.385 154.995H178.992C178.196 154.995 177.55 154.35 177.55 153.554V152.162C177.55 151.366 178.196 150.721 178.992 150.721H189.398Z" fill="#003021"/>
<path d="M136.971 164.417C136.175 164.417 135.53 163.771 135.53 162.975V141.433C135.53 140.637 136.175 139.991 136.971 139.991H144.761C145.274 139.991 145.75 140.265 146.007 140.709L152.478 151.859C152.571 152.019 152.741 152.117 152.925 152.117V152.117C153.211 152.117 153.442 151.885 153.442 151.6V141.433C153.442 140.637 154.087 139.991 154.883 139.991H160.578C161.374 139.991 162.02 140.637 162.02 141.433V162.975C162.02 163.771 161.374 164.417 160.578 164.417H152.979C152.472 164.417 152.003 164.151 151.743 163.716L145.039 152.535C144.948 152.384 144.785 152.291 144.609 152.291V152.291C144.332 152.291 144.108 152.516 144.108 152.792V162.975C144.108 163.771 143.462 164.417 142.666 164.417H136.971Z" fill="#003021"/>
<path d="M126.12 164.417C125.491 164.417 124.935 164.01 124.745 163.411L124.452 162.486C124.263 161.887 123.707 161.48 123.078 161.48H115.245C114.616 161.48 114.06 161.887 113.87 162.486L113.577 163.411C113.388 164.01 112.832 164.417 112.203 164.417H106.239C105.24 164.417 104.544 163.426 104.883 162.486L112.653 140.944C112.859 140.372 113.402 139.991 114.009 139.991H124.315C124.922 139.991 125.464 140.371 125.67 140.942L133.466 162.485C133.806 163.424 133.11 164.417 132.111 164.417H126.12ZM116.853 153.116C116.557 154.046 117.25 154.995 118.227 154.995H120.096C121.072 154.995 121.766 154.046 121.47 153.116L120.147 148.97C120.01 148.541 119.612 148.249 119.161 148.249V148.249C118.711 148.249 118.312 148.541 118.176 148.97L116.853 153.116Z" fill="#003021"/>
<path d="M82.5198 165.23C74.4143 165.203 70.3986 162.956 70.0572 157.428C70.0095 156.656 70.6567 156.041 71.4305 156.041H76.5405C77.3142 156.041 77.893 156.736 78.4212 157.302C79.0513 157.976 80.3279 158.358 82.5198 158.396C85.3695 158.425 86.5908 157.669 86.5908 156.797C86.5908 156.332 86.4744 155.518 84.2645 155.227L81.066 154.732C76.4716 154.006 70.5979 153.686 70.5979 147.114C70.5979 142.2 74.5234 139.176 82.6071 139.176C89.3303 139.176 94.1579 140.793 94.6157 146.903C94.674 147.682 94.024 148.306 93.2436 148.306H87.9952C87.2995 148.306 86.7486 147.761 86.3084 147.222C85.6793 146.452 84.4548 146.009 82.4035 146.009C79.9319 146.009 79.0305 146.707 79.0305 147.579C79.0305 147.986 79.234 148.801 80.8915 149.062L83.4503 149.469C88.3645 150.284 95.3432 150.196 95.3432 157.175C95.3432 162.642 91.156 165.259 82.5198 165.23Z" fill="#003021"/>
<path d="M54.9364 165.23C46.4166 165.23 40.979 160.083 40.979 152.203C40.979 144.323 46.4166 139.176 54.9364 139.176C63.4853 139.176 68.9229 144.323 68.9229 152.203C68.9229 160.083 63.4853 165.23 54.9364 165.23ZM54.9364 157.641C57.757 157.641 60.1705 155.751 60.1705 152.203C60.1705 148.656 57.757 146.766 54.9364 146.766C52.1449 146.766 49.7024 148.656 49.7024 152.203C49.7024 155.751 52.1449 157.641 54.9364 157.641Z" fill="#003021"/>
<path d="M20.0519 164.416C19.2558 164.416 18.6104 163.771 18.6104 162.975L18.6104 141.432C18.6104 140.636 19.2558 139.991 20.0519 139.991H25.9503C26.7465 139.991 27.3919 140.636 27.3919 141.432V155.647C27.3919 156.443 28.0373 157.089 28.8335 157.089H38.6283C39.4245 157.089 40.0699 157.734 40.0699 158.53V162.975C40.0699 163.771 39.4245 164.416 38.6283 164.416H20.0519Z" fill="#003021"/>
<path d="M290.132 110.266H281.591C280.881 110.266 280.306 110.818 280.306 111.501V119.247C280.306 119.93 279.732 120.482 279.022 120.482H270.941C270.231 120.482 269.657 119.93 269.657 119.247V111.501C269.657 110.818 269.082 110.266 268.372 110.266H259.831C259.121 110.266 258.547 110.818 258.547 111.501V119.247C258.547 119.93 257.972 120.482 257.263 120.482H249.182C248.472 120.482 247.897 119.93 247.897 119.247V111.501C247.897 110.818 247.323 110.266 246.613 110.266H238.072C237.362 110.266 236.788 110.818 236.788 111.501V119.247C236.788 119.93 236.213 120.482 235.503 120.482H227.422C226.712 120.482 226.138 119.93 226.138 119.247V111.501C226.138 110.818 225.563 110.266 224.853 110.266H216.312C215.603 110.266 215.028 110.818 215.028 111.501V119.247C215.028 119.93 214.454 120.482 213.744 120.482H205.663C204.953 120.482 204.378 119.93 204.378 119.247V111.501C204.378 110.818 203.804 110.266 203.094 110.266H194.553C193.843 110.266 193.269 110.818 193.269 111.501V119.247C193.269 119.93 192.694 120.482 191.984 120.482H183.903C183.194 120.482 182.619 119.93 182.619 119.247V111.501C182.619 110.818 182.045 110.266 181.335 110.266H172.794C172.084 110.266 171.509 110.818 171.509 111.501V119.247C171.509 119.93 170.935 120.482 170.225 120.482H162.144C161.434 120.482 160.86 119.93 160.86 119.247V111.501C160.86 110.818 160.285 110.266 159.575 110.266H151.034C150.324 110.266 149.75 110.818 149.75 111.501V119.247C149.75 119.93 149.176 120.482 148.466 120.482H140.385C139.675 120.482 139.1 119.93 139.1 119.247V111.501C139.1 110.818 138.526 110.266 137.816 110.266H129.275C128.565 110.266 127.991 110.818 127.991 111.501V119.247C127.991 119.93 127.416 120.482 126.706 120.482H118.625C117.915 120.482 117.341 119.93 117.341 119.247V111.501C117.341 110.818 116.766 110.266 116.057 110.266H107.516C106.806 110.266 106.231 110.818 106.231 111.501V119.247C106.231 119.93 105.657 120.482 104.947 120.482H96.8659C96.156 120.482 95.5816 119.93 95.5816 119.247V111.501C95.5816 110.818 95.0071 110.266 94.2972 110.266H85.7562C85.0463 110.266 84.4719 110.818 84.4719 111.501V119.247C84.4719 119.93 83.8974 120.482 83.1875 120.482H75.1066C74.3967 120.482 73.8222 119.93 73.8222 119.247V111.501C73.8222 110.818 73.2477 110.266 72.5378 110.266H63.9968C63.2869 110.266 62.7125 110.818 62.7125 111.501V119.247C62.7125 119.93 62.138 120.482 61.4281 120.482H53.3472C52.6373 120.482 52.0628 119.93 52.0628 119.247V111.501C52.0628 110.818 51.4884 110.266 50.7785 110.266H42.2375C41.5276 110.266 40.9531 110.818 40.9531 111.501V119.247C40.9531 119.93 40.3787 120.482 39.6688 120.482H32.0759C31.366 120.482 30.7915 119.93 30.7915 119.247V111.501C30.7915 110.818 30.217 110.266 29.5071 110.266H20.9533C20.2434 110.266 19.6689 110.818 19.6689 111.501V119.716C19.6689 120.399 20.2434 120.952 20.9533 120.952H29.0062C29.7161 120.952 30.2906 121.504 30.2906 122.187V129.933C30.2906 130.616 30.8651 131.168 31.575 131.168H40.1159C40.8258 131.168 41.4003 130.616 41.4003 129.933V122.187C41.4003 121.504 41.9748 120.952 42.6847 120.952H50.7656C51.4755 120.952 52.05 121.504 52.05 122.187V129.933C52.05 130.616 52.6244 131.168 53.3343 131.168H61.8753C62.5852 131.168 63.1597 130.616 63.1597 129.933V122.187C63.1597 121.504 63.7341 120.952 64.444 120.952H72.525C73.2349 120.952 73.8094 121.504 73.8094 122.187V129.933C73.8094 130.616 74.3838 131.168 75.0937 131.168H83.6347C84.3446 131.168 84.9191 130.616 84.9191 129.933V122.187C84.9191 121.504 85.4935 120.952 86.2034 120.952H94.2844C94.9943 120.952 95.5687 121.504 95.5687 122.187V129.933C95.5687 130.616 96.1432 131.168 96.8531 131.168H105.394C106.104 131.168 106.678 130.616 106.678 129.933V122.187C106.678 121.504 107.253 120.952 107.963 120.952L116.044 120.952C116.754 120.952 117.328 121.504 117.328 122.187V129.933C117.328 130.616 117.903 131.168 118.612 131.168H127.153C127.863 131.168 128.438 130.616 128.438 129.933V122.187C128.438 121.504 129.012 120.952 129.722 120.952H137.803C138.513 120.952 139.087 121.504 139.087 122.187V129.933C139.087 130.616 139.662 131.168 140.372 131.168H148.913C149.623 131.168 150.197 130.616 150.197 129.933V122.187C150.197 121.504 150.772 120.952 151.482 120.952H159.562C160.272 120.952 160.847 121.504 160.847 122.187V129.933C160.847 130.616 161.421 131.168 162.131 131.168H170.672C171.382 131.168 171.957 130.616 171.957 129.933V122.187C171.957 121.504 172.531 120.952 173.241 120.952H181.322C182.032 120.952 182.606 121.504 182.606 122.187V129.933C182.606 130.616 183.181 131.168 183.891 131.168H192.432C193.141 131.168 193.716 130.616 193.716 129.933V122.187C193.716 121.504 194.29 120.952 195 120.952H203.081C203.791 120.952 204.366 121.504 204.366 122.187V129.933C204.366 130.616 204.94 131.168 205.65 131.168L214.191 131.168C214.901 131.168 215.475 130.616 215.475 129.933V122.187C215.475 121.504 216.05 120.952 216.76 120.952H224.841C225.551 120.952 226.125 121.504 226.125 122.187V129.933C226.125 130.616 226.699 131.168 227.409 131.168H235.95C236.66 131.168 237.235 130.616 237.235 129.933V122.187C237.235 121.504 237.809 120.952 238.519 120.952H246.6C247.31 120.952 247.884 121.504 247.884 122.187V129.933C247.884 130.616 248.459 131.168 249.169 131.168H257.71C258.42 131.168 258.994 130.616 258.994 129.933V122.187C258.994 121.504 259.569 120.952 260.278 120.952L268.359 120.952C269.069 120.952 269.644 121.504 269.644 122.187V129.933C269.644 130.616 270.218 131.168 270.928 131.168H279.469C280.179 131.168 280.753 130.616 280.753 129.933V122.187C280.753 121.504 281.328 120.952 282.038 120.952H290.119C290.829 120.952 291.403 120.399 291.403 119.716V111.501C291.403 110.818 290.829 110.266 290.119 110.266H290.132Z" fill="#FF6138"/>
<path d="M290.131 174.415H281.59C280.88 174.415 280.306 174.967 280.306 175.65V183.396C280.306 184.079 279.731 184.631 279.021 184.631H270.94C270.231 184.631 269.656 184.079 269.656 183.396V175.65C269.656 174.967 269.082 174.415 268.372 174.415H259.831C259.121 174.415 258.546 174.967 258.546 175.65V183.396C258.546 184.079 257.972 184.631 257.262 184.631H249.181C248.471 184.631 247.897 184.079 247.897 183.396V175.65C247.897 174.967 247.322 174.415 246.612 174.415H238.071C237.361 174.415 236.787 174.967 236.787 175.65V183.396C236.787 184.079 236.213 184.631 235.503 184.631H227.422C226.712 184.631 226.137 184.079 226.137 183.396V175.65C226.137 174.967 225.563 174.415 224.853 174.415H216.312C215.602 174.415 215.028 174.967 215.028 175.65V183.396C215.028 184.079 214.453 184.631 213.743 184.631H205.662C204.952 184.631 204.378 184.079 204.378 183.396V175.65C204.378 174.967 203.804 174.415 203.094 174.415H194.553C193.843 174.415 193.268 174.967 193.268 175.65V183.396C193.268 184.079 192.694 184.631 191.984 184.631H183.903C183.193 184.631 182.619 184.079 182.619 183.396V175.65C182.619 174.967 182.044 174.415 181.334 174.415H172.793C172.083 174.415 171.509 174.967 171.509 175.65V183.396C171.509 184.079 170.934 184.631 170.225 184.631H162.144C161.434 184.631 160.859 184.079 160.859 183.396V175.65C160.859 174.967 160.285 174.415 159.575 174.415H151.034C150.324 174.415 149.75 174.967 149.75 175.65V183.396C149.75 184.079 149.175 184.631 148.465 184.631H140.384C139.674 184.631 139.1 184.079 139.1 183.396V175.65C139.1 174.967 138.525 174.415 137.815 174.415H129.274C128.565 174.415 127.99 174.967 127.99 175.65V183.396C127.99 184.079 127.416 184.631 126.706 184.631H118.625C117.915 184.631 117.34 184.079 117.34 183.396V175.65C117.34 174.967 116.766 174.415 116.056 174.415H107.515C106.805 174.415 106.231 174.967 106.231 175.65V183.396C106.231 184.079 105.656 184.631 104.946 184.631H96.8654C96.1555 184.631 95.5811 184.079 95.5811 183.396V175.65C95.5811 174.967 95.0066 174.415 94.2967 174.415H85.7557C85.0458 174.415 84.4714 174.967 84.4714 175.65V183.396C84.4714 184.079 83.8969 184.631 83.187 184.631H75.1061C74.3962 184.631 73.8217 184.079 73.8217 183.396V175.65C73.8217 174.967 73.2472 174.415 72.5373 174.415H63.9964C63.2865 174.415 62.712 174.967 62.712 175.65V183.396C62.712 184.079 62.1375 184.631 61.4276 184.631H53.3467C52.6368 184.631 52.0623 184.079 52.0623 183.396V175.65C52.0623 174.967 51.4879 174.415 50.778 174.415H42.237C41.5271 174.415 40.9526 174.967 40.9526 175.65V183.396C40.9526 184.079 40.3782 184.631 39.6683 184.631H32.0754C31.3655 184.631 30.791 184.079 30.791 183.396V175.65C30.791 174.967 30.2165 174.415 29.5066 174.415H20.9528C20.2429 174.415 19.6685 174.967 19.6685 175.65V183.865C19.6685 184.548 20.2429 185.101 20.9528 185.101H29.0057C29.7156 185.101 30.2901 185.653 30.2901 186.336V194.082C30.2901 194.765 30.8646 195.317 31.5745 195.317H40.1155C40.8254 195.317 41.3998 194.765 41.3998 194.082V186.336C41.3998 185.653 41.9743 185.101 42.6842 185.101H50.7651C51.475 185.101 52.0495 185.653 52.0495 186.336V194.082C52.0495 194.765 52.6239 195.317 53.3338 195.317H61.8748C62.5847 195.317 63.1592 194.765 63.1592 194.082V186.336C63.1592 185.653 63.7336 185.101 64.4436 185.101H72.5245C73.2344 185.101 73.8089 185.653 73.8089 186.336V194.082C73.8089 194.765 74.3833 195.317 75.0932 195.317H83.6342C84.3441 195.317 84.9186 194.765 84.9186 194.082V186.336C84.9186 185.653 85.493 185.101 86.2029 185.101H94.2839C94.9938 185.101 95.5682 185.653 95.5682 186.336V194.082C95.5682 194.765 96.1427 195.317 96.8526 195.317H105.394C106.103 195.317 106.678 194.765 106.678 194.082V186.336C106.678 185.653 107.252 185.101 107.962 185.101H116.043C116.753 185.101 117.328 185.653 117.328 186.336V194.082C117.328 194.765 117.902 195.317 118.612 195.317H127.153C127.863 195.317 128.437 194.765 128.437 194.082V186.336C128.437 185.653 129.012 185.101 129.722 185.101H137.803C138.513 185.101 139.087 185.653 139.087 186.336V194.082C139.087 194.765 139.661 195.317 140.371 195.317H148.912C149.622 195.317 150.197 194.765 150.197 194.082V186.336C150.197 185.653 150.771 185.101 151.481 185.101H159.562C160.272 185.101 160.846 185.653 160.846 186.336V194.082C160.846 194.765 161.421 195.317 162.131 195.317H170.672C171.382 195.317 171.956 194.765 171.956 194.082V186.336C171.956 185.653 172.531 185.101 173.24 185.101H181.321C182.031 185.101 182.606 185.653 182.606 186.336V194.082C182.606 194.765 183.18 195.317 183.89 195.317H192.431C193.141 195.317 193.715 194.765 193.715 194.082V186.336C193.715 185.653 194.29 185.101 195 185.101L203.081 185.101C203.791 185.101 204.365 185.653 204.365 186.336V194.082C204.365 194.765 204.94 195.317 205.649 195.317L214.19 195.317C214.9 195.317 215.475 194.765 215.475 194.082V186.336C215.475 185.653 216.049 185.101 216.759 185.101H224.84C225.55 185.101 226.125 185.653 226.125 186.336V194.082C226.125 194.765 226.699 195.317 227.409 195.317H235.95C236.66 195.317 237.234 194.765 237.234 194.082V186.336C237.234 185.653 237.809 185.101 238.519 185.101H246.6C247.309 185.101 247.884 185.653 247.884 186.336V194.082C247.884 194.765 248.458 195.317 249.168 195.317H257.709C258.419 195.317 258.994 194.765 258.994 194.082V186.336C258.994 185.653 259.568 185.101 260.278 185.101H268.359C269.069 185.101 269.643 185.653 269.643 186.336V194.082C269.643 194.765 270.218 195.317 270.928 195.317H279.469C280.179 195.317 280.753 194.765 280.753 194.082V186.336C280.753 185.653 281.327 185.101 282.037 185.101H290.118C290.828 185.101 291.403 184.548 291.403 183.865V175.65C291.403 174.967 290.828 174.415 290.118 174.415H290.131Z" fill="#FF6138"/>
<g clip-path="url(#clip0_35_1057)">
<path d="M293.832 55.3418C291.274 52.1128 288.719 48.8808 286.164 45.6518C287.46 41.0155 285.987 37.9412 283.028 34.6684C281.383 32.5897 279.737 30.508 278.089 28.4293C276.508 26.4294 274.927 24.4324 273.346 22.4325C271.797 20.3684 269.265 19.1276 266.178 19.1276C257.04 18.9962 252.767 30.6452 249.046 40.8462C248.526 40.1893 248.009 39.5324 247.486 38.8755C243.14 33.7312 236.109 34.683 231.214 41.7308C230.781 41.1819 230.345 40.6331 229.912 40.0842C229.159 37.7077 227.5 35.9297 225.982 34.0144C224.079 31.6087 222.178 29.2059 220.274 26.8002C218.768 24.9959 217.454 23.0193 215.815 21.3347C211.121 17.1101 202.712 19.0195 198.759 26.3856C188.47 11.7089 164.351 18.1612 154.834 31.5766C150.129 27.3987 143.417 24.8908 137.281 24.9083C134.003 25.355 113.116 23.6967 110.715 26.2163C108.119 23.8397 95.1528 25.2703 91.8974 24.9054C90.2697 24.9054 88.7524 25.4046 87.4968 26.26C84.875 23.8105 71.9144 25.282 68.6125 24.9054C65.9064 24.9054 63.5114 26.2863 62.0958 28.3797C54.2422 22.2836 36.8112 22.2048 27.9722 28.949C17.738 35.5822 15.9737 51.0121 23.8826 59.654C21.9293 61.1489 20.7725 63.4816 20.7812 65.9515C21.1533 69.6857 19.5808 78.8619 22.6066 81.7551C24.5743 84.2426 26.5421 86.7272 28.5099 89.2146C30.2858 91.4569 32.0589 93.6991 33.8319 95.9413C37.2821 100.122 44.1155 101.036 54.5474 101.617C63.3951 101.497 71.8504 98.6653 77.0882 91.9882C84.2675 103.337 108.997 104.767 118.406 94.937C119.054 95.7545 119.702 96.5749 120.347 97.3923C121.783 99.3251 124.077 100.578 126.658 100.578H140.853C148.405 100.084 149.123 94.0319 148.73 87.7987C151.817 87.8074 154.936 87.2702 157.869 86.2688C159.04 87.7461 160.209 89.2263 161.377 90.7036C169.042 102.607 187.67 103.62 198.573 95.5705C202.264 100.972 213.653 101.255 219.149 96.1632C223.707 101.252 232.464 100.724 237.487 96.3121C242.169 102.014 253.671 100.315 258.676 94.5341C267.983 104.262 282.938 99.6025 289.986 89.057C297.189 79.0312 299.874 64.1297 293.834 55.3418H293.832Z" fill="#003021"/>
<path d="M51.2691 49.3279L46.0488 47.9148C44.4473 47.4827 43.241 47.328 43.241 46.0025C43.241 44.5544 44.8106 43.9996 47.4091 43.9996C49.6966 43.9996 52.6061 44.5982 55.0709 45.7981C56.4516 46.4696 58.0589 45.5091 58.0589 43.9705V33.4454C58.0589 32.6192 57.5764 31.8601 56.8178 31.5448C54.0565 30.3974 49.0717 29.25 44.0607 29.25C35.2827 29.25 24.3306 34.6074 24.3306 45.5996C24.3306 55.9786 32.3674 58.7055 35.3961 59.523L41.1918 61.1054C42.6597 61.5054 44.4182 62.4309 44.4182 64.0016C44.4182 65.7329 42.1714 66.2847 39.7037 66.2847C36.2826 66.2847 32.1145 65.2278 29.1672 63.6804C27.8098 62.9651 26.1821 63.9928 26.1821 65.5344V76.2754C26.1821 77.1542 26.7314 77.9396 27.5569 78.2316C30.6961 79.3381 36.3785 80.6898 42.5231 80.6898C51.5423 80.6898 63.3199 76.3981 63.3199 64.5417C63.3199 55.2779 55.6639 50.519 51.272 49.3337L51.2691 49.3279Z" fill="#E3DAC5"/>
<path d="M105.963 30.3232H91.4794C90.34 30.3232 89.4157 31.2517 89.4157 32.3961V61.1772C89.4157 62.6925 88.4711 63.6734 87.0788 63.6734C85.6865 63.6734 84.739 62.6925 84.739 61.1772V32.3961C84.739 31.2517 83.8147 30.3232 82.6753 30.3232L68.1916 30.3232C67.0522 30.3232 66.1279 31.2517 66.1279 32.3961V63.2005C66.1279 70.7037 71.8191 80.6711 87.0759 80.6711C102.333 80.6711 108.024 70.7037 108.024 63.2005V32.3961C108.024 31.2517 107.1 30.3232 105.96 30.3232H105.963Z" fill="#E3DAC5"/>
<path d="M271.033 41.1171C270.079 41.1171 269.062 41.3711 267.981 41.8733C266.899 42.3784 265.859 43.1346 264.853 44.1447C264.452 44.5476 264.025 44.7491 263.571 44.7491C263.319 44.7491 263.118 44.6732 262.97 44.5214C262.819 44.3695 262.743 44.1944 262.743 43.9929L262.819 43.6893C263.371 41.52 264.676 38.1655 266.737 33.6255C266.836 33.3745 267.115 32.7175 267.565 31.6577C268.367 29.8914 268.771 28.4287 268.771 27.2696C268.771 25.4537 267.766 24.5457 265.757 24.5457C263.749 24.5457 261.839 25.8828 260.182 28.5572C258.526 31.2315 256.566 35.6459 254.305 41.8003L249.332 55.9485C249.03 56.9587 248.78 57.7149 248.579 58.22C247.725 59.4812 246.908 60.4417 246.132 61.0957C245.353 61.7526 244.437 62.0796 243.382 62.0796C242.327 62.0796 241.359 61.7264 240.632 61.0198C239.903 60.3133 239.539 59.2798 239.539 57.9163C239.539 57.1105 239.676 56.2142 239.955 55.2303C240.231 54.2464 240.644 52.9735 241.199 51.4086C241.801 49.5926 242.24 48.1679 242.519 47.1344C242.795 46.1008 242.932 45.1053 242.932 44.1447C242.932 42.1273 242.153 41.1171 240.598 41.1171C238.74 41.1171 237.005 42.3784 235.4 44.9009C233.793 47.4234 232.186 51.2568 230.578 56.404L230.503 56.7076C229.297 60.2403 227.189 62.0037 224.175 62.0037C222.969 62.0037 222.14 61.7264 221.69 61.1716C221.237 60.6169 221.013 59.7615 221.013 58.5995C221.013 57.6419 221.138 56.6843 221.391 55.7237C221.641 54.7661 222.068 53.4289 222.672 51.7122C223.274 49.8963 223.713 48.4598 223.992 47.4C224.268 46.3402 224.408 45.2571 224.408 44.1476C224.408 42.1302 223.629 41.1201 222.071 41.1201C220.01 41.1201 218.089 42.5477 216.307 45.3943C214.522 48.2438 212.729 52.521 210.921 58.22C209.264 60.7921 207.23 62.0796 204.82 62.0796C203.512 62.0796 202.596 61.7526 202.07 61.0957C201.544 60.4388 201.28 59.5308 201.28 58.3718C201.28 57.1105 201.582 55.4464 202.184 53.3793C203.739 47.6278 206.677 40.3902 210.997 31.6636C211.851 29.9994 212.278 28.5601 212.278 27.3514C212.278 25.4858 211.249 24.5515 209.189 24.5515C207.381 24.5515 205.724 25.585 204.215 27.655C202.71 29.725 201.239 32.5862 199.809 36.2444C198.379 39.9026 196.33 45.6162 193.67 53.3822L192.074 58.0448C192.028 58.1003 191.981 58.1616 191.938 58.2258C190.781 59.9921 189.037 61.2534 186.703 62.0096C184.369 62.7657 181.869 63.1453 179.207 63.1453C174.434 63.1453 170.781 61.9716 168.246 59.6272C165.709 57.2799 164.441 54.3194 164.441 50.7371C164.441 48.2672 164.967 45.8819 166.022 43.5871C167.078 41.2923 168.534 39.4501 170.391 38.0633C172.248 36.6765 174.283 35.9816 176.492 35.9816C177.797 35.9816 178.841 36.2969 179.62 36.9276C180.399 37.5582 180.788 38.5041 180.788 39.7654C180.788 41.5317 180.059 43.8002 178.602 46.5767C178.402 47.0818 178.3 47.4351 178.3 47.6365C178.3 48.1912 178.565 48.6701 179.091 49.0759C179.617 49.4788 180.282 49.6802 181.087 49.6802C182.994 49.6802 185.006 49 187.113 47.6365C189.223 46.276 190.993 44.4075 192.423 42.0368C193.856 39.6661 194.571 37.094 194.571 34.3175C194.571 30.9892 193.353 28.3528 190.918 26.4113C188.482 24.4698 184.93 23.4976 180.259 23.4976C175.187 23.4976 170.377 25.1004 165.834 28.3032C161.288 31.5059 157.646 35.7831 154.91 41.1288C154.899 41.1522 154.887 41.1755 154.876 41.2018C151.405 33.8679 143.22 30.3352 136.866 30.3352L114.634 30.3352C113.494 30.3352 112.57 31.2636 112.57 32.4081L112.57 77.5854C112.57 78.7299 113.494 79.6583 114.634 79.6583H128.829C129.969 79.6583 130.893 78.7299 130.893 77.5854V68.9494C130.893 67.8049 131.817 66.8765 132.957 66.8765H136.788C141.389 66.8765 146.923 65.2649 150.963 61.7059C151.446 67.2151 153.1 71.4689 155.934 74.4586C159.349 78.0672 163.869 79.8685 169.493 79.8685C175.117 79.8685 180.076 78.2307 184.221 74.9491C186.072 73.4834 187.834 71.685 189.508 69.5566C189.473 70.1055 189.456 70.6427 189.456 71.1653C189.456 76.3621 191.839 78.9576 196.612 78.9576C199.222 78.9576 201.57 78.0993 203.654 76.3855C205.738 74.6717 207.445 72.7302 208.776 70.561C208.939 70.2953 209.104 70.0208 209.267 69.7435C209.267 69.7902 209.267 69.834 209.267 69.8778C209.267 72.9054 209.843 75.1622 210.999 76.6512C212.153 78.1402 213.787 78.8846 215.897 78.8846C218.56 78.8846 220.87 77.8248 222.826 75.7052C224.783 73.5856 226.518 70.8879 228.023 67.6093C227.872 68.7187 227.797 69.7552 227.797 70.7128C227.797 76.2132 229.956 78.9605 234.276 78.9605C236.886 78.9605 239.234 78.1022 241.318 76.3884C243.402 74.6746 245.109 72.7331 246.44 70.5639C246.791 69.9916 247.146 69.3902 247.504 68.7625C247.969 71.3055 249.03 73.4718 250.698 75.2556C253.006 77.7285 255.971 78.9635 259.586 78.9635C261.996 78.9635 264.409 78.2073 266.818 76.692C269.228 75.1797 271.387 73.1097 273.297 70.488C276.677 66.0123 277.666 61.7877 277.666 61.7877C278.721 58.4594 279.247 55.1544 279.247 51.8757C279.247 44.714 276.509 41.1317 271.036 41.1317L271.033 41.1171ZM134.143 52.8158H132.948C131.809 52.8158 130.884 51.8874 130.884 50.7429V46.4337C130.884 45.2892 131.809 44.3608 132.948 44.3608H134.143C136.244 44.3608 137.776 46.0921 137.776 48.5883C137.776 51.0845 136.244 52.8158 134.143 52.8158ZM268.094 59.4287C267.542 60.5381 266.774 61.4607 265.795 62.1906C264.815 62.9234 263.723 63.2883 262.519 63.2883C261.165 63.2883 260.171 62.9088 259.543 62.1526C258.915 61.3964 258.601 60.4126 258.601 59.2009C258.601 57.4346 259.191 55.823 260.371 54.3574C261.551 52.8947 263.019 52.1619 264.778 52.1619C266.184 52.1619 267.225 52.5414 267.905 53.2976C268.582 54.0537 268.922 55.0143 268.922 56.1733C268.922 57.2331 268.646 58.3163 268.094 59.4257V59.4287Z" fill="#E3DAC5"/>
</g>
<defs>
<clipPath id="clip0_35_1057">
<rect width="278.221" height="83.6105" fill="white" transform="translate(18.9478 18.0059)"/>
</clipPath>
</defs>
</svg>
