<svg width="120" height="20" viewBox="0 0 120 20" fill="none" xmlns="http://www.w3.org/2000/svg">
<g clip-path="url(#clip0_35_665)">
<mask id="mask0_35_665" style="mask-type:luminance" maskUnits="userSpaceOnUse" x="0" y="0" width="120" height="20">
<path d="M119.975 0H0V20H119.975V0Z" fill="white"/>
</mask>
<g mask="url(#mask0_35_665)">
<path d="M23.2858 10.0447C23.6519 13.0985 23.9917 15.9656 24.3445 18.8297C24.3862 19.1729 24.3195 19.2939 23.958 19.3131C21.7809 19.4281 21.7821 19.4372 20.9952 17.3301C20.6675 16.4534 20.3482 15.5731 19.9993 14.7052C19.9224 14.5625 19.8942 14.3968 19.9188 14.2351C19.9436 14.0735 20.02 13.9253 20.1355 13.8148C21.1653 12.619 22.1683 11.3909 23.2858 10.0447Z" fill="#E3DAC5"/>
<path d="M10.4894 12.6045C10.8012 14.2855 11.1087 15.8653 11.3796 17.4523C11.4631 17.9436 11.8393 18.5677 11.5175 18.8999C11.24 19.1853 10.6239 18.7815 10.1504 18.7998C8.89247 18.8497 8.30695 18.2317 8.10259 16.9341C7.98264 16.1722 7.92955 15.6447 8.53011 15.0546C9.23115 14.2812 9.8855 13.4629 10.4894 12.6045Z" fill="#E3DAC5"/>
<path d="M14.0415 15.6705C14.0415 14.7264 14.0277 13.7824 14.0482 12.8387C14.0561 12.4681 13.9575 12.3431 13.5809 12.33C11.0121 12.2411 8.44379 12.1333 5.87604 12.0066C5.47274 11.9869 5.3135 12.1066 5.22783 12.5236C4.83163 14.4546 4.38193 16.3741 3.99493 18.3073C3.88627 18.8501 3.68818 19.0502 3.14528 18.9886C2.54292 18.9233 1.9365 18.9088 1.33189 18.9449C0.876342 18.9689 0.788578 18.7701 0.795266 18.3554C0.83455 15.4559 0.892645 12.5564 0.865898 9.65778C0.860964 8.76582 1.14581 7.89855 1.67376 7.19799C3.09472 5.13287 4.46343 3.0306 5.84009 0.93358C5.91434 0.789988 6.0312 0.675512 6.17306 0.607404C6.31493 0.539295 6.47411 0.521237 6.62663 0.555952C11.7596 1.13025 16.8946 1.68663 22.0315 2.22509C22.3528 2.26537 22.6596 2.38803 22.9246 2.58218C25.9813 4.65953 29.0327 6.74433 32.1048 8.79633C32.5645 9.10227 32.5771 9.27709 32.1353 9.55376C32.0403 9.60748 31.9553 9.67885 31.8846 9.76442C30.9998 10.9598 29.9621 10.906 28.7083 10.3763C27.1929 9.73777 25.5948 9.31425 24.0409 8.77142C23.893 8.70872 23.7326 8.68499 23.574 8.70229C23.4152 8.71958 23.2629 8.7774 23.1306 8.87063C21.7013 9.79895 20.2654 10.7159 18.8231 11.6215C18.6931 11.6943 18.5822 11.7991 18.4998 11.9269C18.4175 12.0547 18.3661 12.2016 18.3504 12.3549C18.034 14.3478 17.672 16.3322 17.3812 18.3304C17.2976 18.9029 17.1024 19.0844 16.5583 19.0445C15.8673 19.0019 15.1745 19.0007 14.4833 19.0411C14.0733 19.0603 13.9684 18.91 13.9817 18.5013C14.0085 17.5576 13.9902 16.6127 13.9902 15.6688L14.0415 15.6705Z" fill="#E3DAC5"/>
<path d="M44.7406 9.95268C45.7749 8.32109 47.2698 7.85001 48.9967 8.09364C49.9552 8.1764 50.8473 8.63915 51.4903 9.38719C52.1332 10.1352 52.4784 11.112 52.4554 12.1175C52.5215 14.1954 52.4611 16.2779 52.4901 18.3578C52.4974 18.891 52.2132 18.8582 51.8734 18.8632C51.5012 18.8668 51.204 18.8865 51.2141 18.3158C51.246 16.5468 51.2301 14.7776 51.2218 13.0111C51.2157 12.6482 51.1889 12.286 51.1417 11.9264C50.8357 9.3714 48.6902 8.9443 47.0818 9.5104C46.0668 9.86421 45.4268 10.9363 45.4134 12.3005C45.394 14.2245 45.395 16.1488 45.4162 18.0733C45.4221 18.5994 45.3506 18.8819 44.7362 18.8819C44.1118 18.8819 44.0552 18.5715 44.0596 18.0611C44.075 16.2415 44.0934 14.4219 44.0596 12.6022C44.0112 10.1705 42.396 8.84979 40.2471 9.43914C39.724 9.57832 39.2576 9.88995 38.917 10.3279C38.5764 10.7659 38.3796 11.3069 38.3559 11.8708C38.2116 13.9448 38.1867 16.026 38.281 18.1031C38.2892 18.9299 37.8905 18.8966 37.3626 18.8612C37.1341 18.8465 36.976 18.7849 36.9838 18.5039C37.0428 16.2192 36.8228 13.926 37.0988 11.65C37.3114 9.89555 38.2139 8.62284 39.9107 8.21291C41.7241 7.77217 43.3969 8.04865 44.5908 9.75959C44.6284 9.81166 44.6744 9.86624 44.7406 9.95268Z" fill="#E3DAC5"/>
<path d="M110.681 9.89973C111.323 9.0949 112.181 8.50896 113.144 8.21693C114.106 7.9249 115.131 7.9401 116.085 8.26056C118.534 8.95202 119.776 11.1487 119.583 14.2876C119.531 15.32 119.184 16.3122 118.587 17.1366C117.99 17.9609 117.171 18.5798 116.236 18.9134C115.262 19.2621 114.213 19.3072 113.216 19.0428C112.219 18.7786 111.316 18.2163 110.619 17.4248C109.801 16.4288 109.359 15.1539 109.377 13.8407C109.355 9.68391 109.372 5.5266 109.366 1.3698C109.366 0.904787 109.416 0.554003 109.991 0.540357C110.587 0.526204 110.689 0.854745 110.687 1.37586C110.674 4.15481 110.681 6.93377 110.681 9.89973ZM110.681 13.6072C110.607 17.0245 113.32 18.6051 116.04 17.5931C117.724 16.9669 118.642 14.893 118.286 12.7409C118.022 11.1376 117.305 9.90326 115.709 9.45545C112.833 8.64117 110.676 10.4355 110.681 13.6066V13.6072Z" fill="#E3DAC5"/>
<path d="M104.786 9.92603C104.786 6.94085 104.79 4.14017 104.781 1.33999C104.781 0.863355 104.844 0.531273 105.42 0.538854C105.896 0.546941 106.082 0.71829 106.08 1.23081C106.064 5.47101 106.107 9.71121 106.051 13.9504C106.009 17.1064 103.821 19.2142 100.786 19.1651C97.9206 19.1191 95.8413 16.8562 95.8272 13.7674C95.8143 10.8864 97.096 8.83982 99.412 8.24035C101.408 7.72227 103.23 8.07255 104.786 9.92603ZM100.932 17.8747C103.286 17.8783 104.781 16.2249 104.786 13.6118C104.791 10.9283 103.316 9.27451 100.924 9.28108C98.5754 9.28765 97.1061 10.9379 97.0999 13.5819C97.0922 16.191 98.5905 17.8706 100.932 17.8742V17.8747Z" fill="#E3DAC5"/>
<path d="M80.9221 10.1378C80.9221 7.19612 80.9298 4.34943 80.9153 1.50276C80.9129 1.00338 81.0076 0.707691 81.5668 0.726393C82.01 0.74105 82.184 0.912398 82.1825 1.38347C82.1676 5.69697 82.2207 10.0115 82.1448 14.323C82.0926 17.294 79.8944 19.3658 77.0217 19.3516C76.3658 19.3703 75.7131 19.2526 75.1012 19.0054C74.4893 18.7581 73.9305 18.3863 73.4571 17.9113C72.9837 17.4365 72.6051 16.868 72.3434 16.2389C72.0817 15.6097 71.9422 14.9325 71.9328 14.2465C71.8279 11.4848 72.8966 9.40038 74.9661 8.62553C77.1855 7.79457 79.2227 8.11048 80.9221 10.1378ZM77.0806 18.0607C79.4058 18.0491 80.9472 16.3185 80.9206 13.7548C80.8906 11.0876 79.3842 9.44385 76.9906 9.46659C74.6602 9.48883 73.1875 11.1775 73.2025 13.8104C73.2174 16.4104 74.7336 18.0724 77.0806 18.0607Z" fill="#E3DAC5"/>
<path d="M89.2288 19.1694C87.8441 19.1588 86.6072 18.7959 85.7784 17.5337C85.5614 17.2037 85.2776 16.8084 85.7736 16.4657C86.1926 16.1761 86.4719 16.3565 86.7706 16.7478C87.324 17.3925 88.0768 17.8131 88.8969 17.9357C89.717 18.0584 90.5523 17.8752 91.2563 17.4185C91.4912 17.2692 91.6809 17.0535 91.8034 16.7963C91.9259 16.539 91.9762 16.2507 91.9484 15.9647C91.9322 15.6896 91.8354 15.4262 91.6711 15.2106C91.5068 14.9949 91.283 14.8373 91.0302 14.7593C90.0849 14.4319 89.1196 14.1715 88.1408 13.98C87.7295 13.8782 87.3271 13.7406 86.9378 13.5684C86.5822 13.4091 86.2663 13.1665 86.0146 12.8593C85.7627 12.5521 85.5818 12.1885 85.4856 11.7966C85.3894 11.4047 85.3806 10.9949 85.4597 10.5988C85.5388 10.2028 85.7039 9.83104 85.9422 9.51226C87.1873 7.67496 91.5337 7.34489 92.8431 9.72859C93.0127 10.0374 93.3902 10.3821 92.8977 10.7248C92.4776 11.0175 92.1727 10.9406 91.8478 10.4635C90.9489 9.13518 88.5231 8.8673 87.3293 9.91105C87.1111 10.0662 86.9401 10.2833 86.836 10.5368C86.732 10.7903 86.6994 11.0697 86.7422 11.3419C86.7849 11.6141 86.9013 11.8679 87.0774 12.0732C87.2536 12.2786 87.4822 12.427 87.7363 12.501C88.5323 12.7886 89.3743 12.9392 90.1964 13.1479C90.7802 13.281 91.3437 13.4978 91.8706 13.7924C92.2907 14.0124 92.6442 14.3498 92.8921 14.7672C93.1398 15.1846 93.2721 15.6657 93.2743 16.157C93.2764 16.6483 93.1484 17.1307 92.9043 17.5504C92.6602 17.9702 92.3095 18.311 91.8915 18.5351C91.077 18.9997 90.1554 19.2193 89.2288 19.1694Z" fill="#E3DAC5"/>
<path d="M69.6308 15.3995C69.6308 16.3352 69.6066 17.2697 69.6405 18.2063C69.6588 18.7117 69.5139 18.8882 69.0122 18.8725C68.5545 18.8578 68.3356 18.7674 68.3423 18.2225C68.3703 16.4813 68.366 14.7394 68.3495 12.9982C68.3234 10.3415 66.4733 8.83176 63.9996 9.43122C63.3345 9.57985 62.7376 9.96141 62.3078 10.5128C61.8779 11.0642 61.6409 11.7525 61.6358 12.4639C61.5622 14.3341 61.5841 16.2042 61.5961 18.0744C61.5995 18.6001 61.5308 18.8725 60.9195 18.8801C60.2713 18.8882 60.2563 18.552 60.2718 18.0597C60.3351 16.0884 60.1398 14.1087 60.3777 12.143C60.7006 9.47065 62.4979 7.96796 65.2244 8.03972C65.7872 8.02847 66.3464 8.13332 66.8704 8.34828C67.3944 8.56324 67.8727 8.88409 68.2779 9.29249C68.6832 9.7009 69.0076 10.1888 69.2324 10.7284C69.4572 11.268 69.5782 11.8486 69.5883 12.4371C69.6511 13.4202 69.5985 14.4084 69.5985 15.3981L69.6308 15.3995Z" fill="#E3DAC5"/>
<path d="M57.0154 13.6354C57.0154 15.1411 56.9961 16.6469 57.026 18.1521C57.0367 18.6803 56.9076 18.8673 56.3668 18.8738C55.78 18.8809 55.7342 18.6004 55.7385 18.1156C55.753 15.1568 55.7486 12.1974 55.7429 9.238C55.7429 8.76691 55.7293 8.357 56.3712 8.34184C57.0131 8.32667 57.028 8.70677 57.0236 9.19654C57.0072 10.6765 57.0154 12.1559 57.0154 13.6354Z" fill="#E3DAC5"/>
<path d="M55.2969 5.06716C55.3009 4.76736 55.4169 4.48112 55.6201 4.26962C55.8234 4.05814 56.0976 3.9382 56.3842 3.93546C56.5327 3.93126 56.6801 3.95986 56.8171 4.01941C56.9542 4.07896 57.0776 4.1681 57.1794 4.281C57.2812 4.39389 57.3591 4.52801 57.4078 4.67454C57.4566 4.82108 57.4753 4.97675 57.4626 5.13134C57.448 5.42696 57.3234 5.70488 57.1155 5.90567C56.9075 6.10647 56.6327 6.21419 56.3497 6.20579C56.0667 6.19741 55.7982 6.07358 55.6014 5.8608C55.4047 5.64801 55.2954 5.36316 55.2969 5.06716Z" fill="#E3DAC5"/>
</g>
</g>
<defs>
<clipPath id="clip0_35_665">
<rect width="120" height="20" fill="white"/>
</clipPath>
</defs>
</svg>
