<svg width="1800" height="36" viewBox="0 0 1800 36" fill="none" xmlns="http://www.w3.org/2000/svg">
<path d="M461.969 0L447.38 0C446.168 0 445.186 0.943796 445.186 2.11011V15.3405C445.186 16.5068 444.205 17.4506 442.993 17.4506H429.19C427.977 17.4506 426.996 16.5068 426.996 15.3405V2.11011C426.996 0.943796 426.015 0 424.802 0L410.214 0C409.001 0 408.02 0.943796 408.02 2.11011V15.3405C408.02 16.5068 407.039 17.4506 405.826 17.4506H392.023C390.811 17.4506 389.83 16.5068 389.83 15.3405V2.11011C389.83 0.943796 388.848 0 387.636 0L373.047 0C371.835 0 370.853 0.943796 370.853 2.11011V15.3405C370.853 16.5068 369.872 17.4506 368.66 17.4506L354.857 17.4506C353.644 17.4506 352.663 16.5068 352.663 15.3405V2.11011C352.663 0.943796 351.682 0 350.469 0L335.881 0C334.668 0 333.687 0.943796 333.687 2.11011V15.3405C333.687 16.5068 332.706 17.4506 331.493 17.4506H317.69C316.478 17.4506 315.496 16.5068 315.496 15.3405V2.11011C315.496 0.943796 314.515 0 313.303 0L298.714 0C297.502 0 296.52 0.943796 296.52 2.11011V15.3405C296.52 16.5068 295.539 17.4506 294.327 17.4506H280.524C279.311 17.4506 278.33 16.5068 278.33 15.3405V2.11011C278.33 0.943796 277.349 0 276.136 0L261.548 0C260.335 0 259.354 0.943796 259.354 2.11011V15.3405C259.354 16.5068 258.373 17.4506 257.16 17.4506L243.357 17.4506C242.145 17.4506 241.163 16.5068 241.163 15.3405V2.11011C241.163 0.943796 240.182 0 238.97 0L224.381 0C223.169 0 222.187 0.943796 222.187 2.11011V15.3405C222.187 16.5068 221.206 17.4506 219.994 17.4506L206.191 17.4506C204.978 17.4506 203.997 16.5068 203.997 15.3405V2.11011C203.997 0.943796 203.016 0 201.803 0L187.215 0C186.002 0 185.021 0.943796 185.021 2.11011V15.3405C185.021 16.5068 184.04 17.4506 182.827 17.4506H169.024C167.812 17.4506 166.83 16.5068 166.83 15.3405V2.11011C166.83 0.943796 165.849 0 164.637 0L150.048 0C148.836 0 147.854 0.943796 147.854 2.11011V15.3405C147.854 16.5068 146.873 17.4506 145.661 17.4506H131.858C130.645 17.4506 129.664 16.5068 129.664 15.3405V2.11011C129.664 0.943796 128.683 0 127.47 0L112.882 0C111.669 0 110.688 0.943796 110.688 2.11011V15.3405C110.688 16.5068 109.707 17.4506 108.494 17.4506L94.6912 17.4506C93.4787 17.4506 92.4975 16.5068 92.4975 15.3405V2.11011C92.4975 0.943796 91.5162 0 90.3037 0L75.7151 0C74.5025 0 73.5213 0.943796 73.5213 2.11011V15.3405C73.5213 16.5068 72.5401 17.4506 71.3275 17.4506H57.5247C56.3122 17.4506 55.331 16.5068 55.331 15.3405V2.11011C55.331 0.943796 54.3497 0 53.1372 0L38.5486 0C37.336 0 36.3548 0.943796 36.3548 2.11011V15.3405C36.3548 16.5068 35.3736 17.4506 34.161 17.4506H21.1919C19.9793 17.4506 18.9981 16.5068 18.9981 15.3405L18.9981 2.11011C18.9981 0.943796 18.0169 0 16.8043 0L2.19377 0C0.981215 0 0 0.943796 0 2.11011L0 16.1424C0 17.3087 0.981215 18.2525 2.19377 18.2525L15.9487 18.2525C17.1613 18.2525 18.1425 19.1963 18.1425 20.3626V33.593C18.1425 34.7593 19.1237 35.7031 20.3363 35.7031L34.9249 35.7031C36.1374 35.7031 37.1186 34.7593 37.1186 33.593L37.1186 20.3626C37.1186 19.1963 38.0999 18.2525 39.3124 18.2525L53.1152 18.2525C54.3278 18.2525 55.309 19.1963 55.309 20.3626L55.309 33.593C55.309 34.7593 56.2902 35.7031 57.5028 35.7031H72.0914C73.3039 35.7031 74.2852 34.7593 74.2852 33.593V20.3626C74.2852 19.1963 75.2664 18.2525 76.4789 18.2525H90.2818C91.4943 18.2525 92.4755 19.1963 92.4755 20.3626V33.593C92.4755 34.7593 93.4567 35.7031 94.6693 35.7031H109.258C110.47 35.7031 111.452 34.7593 111.452 33.593V20.3626C111.452 19.1963 112.433 18.2525 113.645 18.2525H127.448C128.661 18.2525 129.642 19.1963 129.642 20.3626V33.593C129.642 34.7593 130.623 35.7031 131.836 35.7031L146.424 35.7031C147.637 35.7031 148.618 34.7593 148.618 33.593V20.3626C148.618 19.1963 149.599 18.2525 150.812 18.2525L164.615 18.2525C165.827 18.2525 166.809 19.1963 166.809 20.3626V33.593C166.809 34.7593 167.79 35.7031 169.002 35.7031H183.591C184.803 35.7031 185.785 34.7593 185.785 33.593V20.3626C185.785 19.1963 186.766 18.2525 187.978 18.2525L201.781 18.2525C202.994 18.2525 203.975 19.1963 203.975 20.3626V33.593C203.975 34.7593 204.956 35.7031 206.169 35.7031H220.757C221.97 35.7031 222.951 34.7593 222.951 33.593V20.3626C222.951 19.1963 223.932 18.2525 225.145 18.2525H238.948C240.16 18.2525 241.142 19.1963 241.142 20.3626V33.593C241.142 34.7593 242.123 35.7031 243.335 35.7031H257.924C259.136 35.7031 260.118 34.7593 260.118 33.593V20.3626C260.118 19.1963 261.099 18.2525 262.311 18.2525L276.114 18.2525C277.327 18.2525 278.308 19.1963 278.308 20.3626V33.593C278.308 34.7593 279.289 35.7031 280.502 35.7031H295.09C296.303 35.7031 297.284 34.7593 297.284 33.593V20.3626C297.284 19.1963 298.265 18.2525 299.478 18.2525L313.281 18.2525C314.493 18.2525 315.475 19.1963 315.475 20.3626V33.593C315.475 34.7593 316.456 35.7031 317.668 35.7031L332.257 35.7031C333.469 35.7031 334.451 34.7593 334.451 33.593V20.3626C334.451 19.1963 335.432 18.2525 336.645 18.2525H350.447C351.66 18.2525 352.641 19.1963 352.641 20.3626V33.593C352.641 34.7593 353.622 35.7031 354.835 35.7031H369.423C370.636 35.7031 371.617 34.7593 371.617 33.593V20.3626C371.617 19.1963 372.598 18.2525 373.811 18.2525H387.614C388.826 18.2525 389.808 19.1963 389.808 20.3626V33.593C389.808 34.7593 390.789 35.7031 392.001 35.7031H406.59C407.803 35.7031 408.784 34.7593 408.784 33.593V20.3626C408.784 19.1963 409.765 18.2525 410.978 18.2525L424.78 18.2525C425.993 18.2525 426.974 19.1963 426.974 20.3626V33.593C426.974 34.7593 427.955 35.7031 429.168 35.7031L443.756 35.7031C444.969 35.7031 445.95 34.7593 445.95 33.593V20.3626C445.95 19.1963 446.931 18.2525 448.144 18.2525L461.947 18.2525C463.159 18.2525 464.141 17.3087 464.141 16.1424V2.11011C464.141 0.943796 463.159 0 461.947 0L461.969 0Z" fill="#FF5120"/>
<path d="M907.109 0L892.521 0C891.308 0 890.327 0.943796 890.327 2.11011V15.3405C890.327 16.5068 889.346 17.4506 888.133 17.4506H874.33C873.118 17.4506 872.137 16.5068 872.137 15.3405V2.11011C872.137 0.943796 871.155 0 869.943 0L855.354 0C854.142 0 853.161 0.943796 853.161 2.11011V15.3405C853.161 16.5068 852.179 17.4506 850.967 17.4506H837.164C835.951 17.4506 834.97 16.5068 834.97 15.3405V2.11011C834.97 0.943796 833.989 0 832.776 0L818.188 0C816.975 0 815.994 0.943796 815.994 2.11011V15.3405C815.994 16.5068 815.013 17.4506 813.8 17.4506L799.997 17.4506C798.785 17.4506 797.804 16.5068 797.804 15.3405V2.11011C797.804 0.943796 796.822 0 795.61 0L781.021 0C779.809 0 778.828 0.943796 778.828 2.11011V15.3405C778.828 16.5068 777.846 17.4506 776.634 17.4506H762.831C761.618 17.4506 760.637 16.5068 760.637 15.3405V2.11011C760.637 0.943796 759.656 0 758.443 0L743.855 0C742.642 0 741.661 0.943796 741.661 2.11011V15.3405C741.661 16.5068 740.68 17.4506 739.467 17.4506H725.664C724.452 17.4506 723.471 16.5068 723.471 15.3405V2.11011C723.471 0.943796 722.489 0 721.277 0L706.688 0C705.476 0 704.494 0.943796 704.494 2.11011V15.3405C704.494 16.5068 703.513 17.4506 702.301 17.4506L688.498 17.4506C687.285 17.4506 686.304 16.5068 686.304 15.3405V2.11011C686.304 0.943796 685.323 0 684.11 0L669.522 0C668.309 0 667.328 0.943796 667.328 2.11011V15.3405C667.328 16.5068 666.347 17.4506 665.134 17.4506L651.331 17.4506C650.119 17.4506 649.138 16.5068 649.138 15.3405V2.11011C649.138 0.943796 648.156 0 646.944 0L632.355 0C631.143 0 630.161 0.943796 630.161 2.11011V15.3405C630.161 16.5068 629.18 17.4506 627.968 17.4506H614.165C612.952 17.4506 611.971 16.5068 611.971 15.3405V2.11011C611.971 0.943796 610.99 0 609.777 0L595.189 0C593.976 0 592.995 0.943796 592.995 2.11011V15.3405C592.995 16.5068 592.014 17.4506 590.801 17.4506H576.998C575.786 17.4506 574.805 16.5068 574.805 15.3405V2.11011C574.805 0.943796 573.823 0 572.611 0L558.022 0C556.81 0 555.828 0.943796 555.828 2.11011V15.3405C555.828 16.5068 554.847 17.4506 553.635 17.4506L539.832 17.4506C538.619 17.4506 537.638 16.5068 537.638 15.3405V2.11011C537.638 0.943796 536.657 0 535.444 0L520.856 0C519.643 0 518.662 0.943796 518.662 2.11011V15.3405C518.662 16.5068 517.681 17.4506 516.468 17.4506H502.665C501.453 17.4506 500.472 16.5068 500.472 15.3405V2.11011C500.472 0.943796 499.49 0 498.278 0L483.689 0C482.477 0 481.495 0.943796 481.495 2.11011V15.3405C481.495 16.5068 480.514 17.4506 479.302 17.4506H466.332C465.12 17.4506 464.139 16.5068 464.139 15.3405V2.11011C464.139 0.943796 463.157 0 461.945 0L447.334 0C446.122 0 445.141 0.943796 445.141 2.11011V16.1424C445.141 17.3087 446.122 18.2525 447.334 18.2525L461.089 18.2525C462.302 18.2525 463.283 19.1963 463.283 20.3626V33.593C463.283 34.7593 464.264 35.7031 465.477 35.7031L480.065 35.7031C481.278 35.7031 482.259 34.7593 482.259 33.593V20.3626C482.259 19.1963 483.24 18.2525 484.453 18.2525L498.256 18.2525C499.468 18.2525 500.45 19.1963 500.45 20.3626V33.593C500.45 34.7593 501.431 35.7031 502.643 35.7031H517.232C518.445 35.7031 519.426 34.7593 519.426 33.593V20.3626C519.426 19.1963 520.407 18.2525 521.62 18.2525H535.422C536.635 18.2525 537.616 19.1963 537.616 20.3626V33.593C537.616 34.7593 538.597 35.7031 539.81 35.7031H554.399C555.611 35.7031 556.592 34.7593 556.592 33.593V20.3626C556.592 19.1963 557.574 18.2525 558.786 18.2525H572.589C573.801 18.2525 574.783 19.1963 574.783 20.3626V33.593C574.783 34.7593 575.764 35.7031 576.976 35.7031L591.565 35.7031C592.778 35.7031 593.759 34.7593 593.759 33.593V20.3626C593.759 19.1963 594.74 18.2525 595.953 18.2525L609.755 18.2525C610.968 18.2525 611.949 19.1963 611.949 20.3626V33.593C611.949 34.7593 612.93 35.7031 614.143 35.7031H628.732C629.944 35.7031 630.925 34.7593 630.925 33.593V20.3626C630.925 19.1963 631.907 18.2525 633.119 18.2525L646.922 18.2525C648.134 18.2525 649.116 19.1963 649.116 20.3626V33.593C649.116 34.7593 650.097 35.7031 651.309 35.7031H665.898C667.111 35.7031 668.092 34.7593 668.092 33.593V20.3626C668.092 19.1963 669.073 18.2525 670.286 18.2525H684.088C685.301 18.2525 686.282 19.1963 686.282 20.3626V33.593C686.282 34.7593 687.263 35.7031 688.476 35.7031H703.065C704.277 35.7031 705.258 34.7593 705.258 33.593V20.3626C705.258 19.1963 706.24 18.2525 707.452 18.2525L721.255 18.2525C722.467 18.2525 723.449 19.1963 723.449 20.3626V33.593C723.449 34.7593 724.43 35.7031 725.642 35.7031H740.231C741.444 35.7031 742.425 34.7593 742.425 33.593V20.3626C742.425 19.1963 743.406 18.2525 744.619 18.2525L758.421 18.2525C759.634 18.2525 760.615 19.1963 760.615 20.3626V33.593C760.615 34.7593 761.596 35.7031 762.809 35.7031L777.398 35.7031C778.61 35.7031 779.591 34.7593 779.591 33.593V20.3626C779.591 19.1963 780.573 18.2525 781.785 18.2525H795.588C796.8 18.2525 797.782 19.1963 797.782 20.3626V33.593C797.782 34.7593 798.763 35.7031 799.975 35.7031H814.564C815.777 35.7031 816.758 34.7593 816.758 33.593V20.3626C816.758 19.1963 817.739 18.2525 818.952 18.2525H832.754C833.967 18.2525 834.948 19.1963 834.948 20.3626V33.593C834.948 34.7593 835.929 35.7031 837.142 35.7031H851.731C852.943 35.7031 853.924 34.7593 853.924 33.593V20.3626C853.924 19.1963 854.906 18.2525 856.118 18.2525L869.921 18.2525C871.133 18.2525 872.115 19.1963 872.115 20.3626V33.593C872.115 34.7593 873.096 35.7031 874.308 35.7031L888.897 35.7031C890.11 35.7031 891.091 34.7593 891.091 33.593V20.3626C891.091 19.1963 892.072 18.2525 893.285 18.2525L907.087 18.2525C908.3 18.2525 909.281 17.3087 909.281 16.1424V2.11011C909.281 0.943796 908.3 0 907.087 0L907.109 0Z" fill="#FF5120"/>
<path d="M1352.25 0L1337.66 0C1336.45 0 1335.47 0.943796 1335.47 2.11011V15.3405C1335.47 16.5068 1334.49 17.4506 1333.27 17.4506H1319.47C1318.26 17.4506 1317.28 16.5068 1317.28 15.3405V2.11011C1317.28 0.943796 1316.3 0 1315.08 0L1300.49 0C1299.28 0 1298.3 0.943796 1298.3 2.11011V15.3405C1298.3 16.5068 1297.32 17.4506 1296.11 17.4506H1282.3C1281.09 17.4506 1280.11 16.5068 1280.11 15.3405V2.11011C1280.11 0.943796 1279.13 0 1277.92 0L1263.33 0C1262.12 0 1261.13 0.943796 1261.13 2.11011V15.3405C1261.13 16.5068 1260.15 17.4506 1258.94 17.4506L1245.14 17.4506C1243.93 17.4506 1242.94 16.5068 1242.94 15.3405V2.11011C1242.94 0.943796 1241.96 0 1240.75 0L1226.16 0C1224.95 0 1223.97 0.943796 1223.97 2.11011V15.3405C1223.97 16.5068 1222.99 17.4506 1221.77 17.4506H1207.97C1206.76 17.4506 1205.78 16.5068 1205.78 15.3405V2.11011C1205.78 0.943796 1204.8 0 1203.58 0L1189 0C1187.78 0 1186.8 0.943796 1186.8 2.11011V15.3405C1186.8 16.5068 1185.82 17.4506 1184.61 17.4506H1170.81C1169.59 17.4506 1168.61 16.5068 1168.61 15.3405V2.11011C1168.61 0.943796 1167.63 0 1166.42 0L1151.83 0C1150.62 0 1149.64 0.943796 1149.64 2.11011V15.3405C1149.64 16.5068 1148.65 17.4506 1147.44 17.4506L1133.64 17.4506C1132.43 17.4506 1131.44 16.5068 1131.44 15.3405V2.11011C1131.44 0.943796 1130.46 0 1129.25 0L1114.66 0C1113.45 0 1112.47 0.943796 1112.47 2.11011V15.3405C1112.47 16.5068 1111.49 17.4506 1110.27 17.4506L1096.47 17.4506C1095.26 17.4506 1094.28 16.5068 1094.28 15.3405V2.11011C1094.28 0.943796 1093.3 0 1092.08 0L1077.5 0C1076.28 0 1075.3 0.943796 1075.3 2.11011V15.3405C1075.3 16.5068 1074.32 17.4506 1073.11 17.4506H1059.31C1058.09 17.4506 1057.11 16.5068 1057.11 15.3405V2.11011C1057.11 0.943796 1056.13 0 1054.92 0L1040.33 0C1039.12 0 1038.14 0.943796 1038.14 2.11011V15.3405C1038.14 16.5068 1037.15 17.4506 1035.94 17.4506H1022.14C1020.93 17.4506 1019.95 16.5068 1019.95 15.3405V2.11011C1019.95 0.943796 1018.96 0 1017.75 0L1003.16 0C1001.95 0 1000.97 0.943796 1000.97 2.11011V15.3405C1000.97 16.5068 999.988 17.4506 998.775 17.4506L984.972 17.4506C983.76 17.4506 982.779 16.5068 982.779 15.3405V2.11011C982.779 0.943796 981.797 0 980.585 0L965.996 0C964.784 0 963.803 0.943796 963.803 2.11011V15.3405C963.803 16.5068 962.821 17.4506 961.609 17.4506H947.806C946.593 17.4506 945.612 16.5068 945.612 15.3405V2.11011C945.612 0.943796 944.631 0 943.418 0L928.83 0C927.617 0 926.636 0.943796 926.636 2.11011V15.3405C926.636 16.5068 925.655 17.4506 924.442 17.4506H911.473C910.261 17.4506 909.279 16.5068 909.279 15.3405V2.11011C909.279 0.943796 908.298 0 907.086 0L892.475 0C891.262 0 890.281 0.943796 890.281 2.11011V16.1424C890.281 17.3087 891.262 18.2525 892.475 18.2525L906.23 18.2525C907.443 18.2525 908.424 19.1963 908.424 20.3626V33.593C908.424 34.7593 909.405 35.7031 910.618 35.7031L925.206 35.7031C926.419 35.7031 927.4 34.7593 927.4 33.593V20.3626C927.4 19.1963 928.381 18.2525 929.594 18.2525L943.396 18.2525C944.609 18.2525 945.59 19.1963 945.59 20.3626V33.593C945.59 34.7593 946.571 35.7031 947.784 35.7031H962.373C963.585 35.7031 964.566 34.7593 964.566 33.593V20.3626C964.566 19.1963 965.548 18.2525 966.76 18.2525H980.563C981.776 18.2525 982.757 19.1963 982.757 20.3626V33.593C982.757 34.7593 983.738 35.7031 984.951 35.7031H999.539C1000.75 35.7031 1001.73 34.7593 1001.73 33.593V20.3626C1001.73 19.1963 1002.71 18.2525 1003.93 18.2525H1017.73C1018.94 18.2525 1019.92 19.1963 1019.92 20.3626V33.593C1019.92 34.7593 1020.9 35.7031 1022.12 35.7031L1036.71 35.7031C1037.92 35.7031 1038.9 34.7593 1038.9 33.593V20.3626C1038.9 19.1963 1039.88 18.2525 1041.09 18.2525L1054.9 18.2525C1056.11 18.2525 1057.09 19.1963 1057.09 20.3626V33.593C1057.09 34.7593 1058.07 35.7031 1059.28 35.7031H1073.87C1075.08 35.7031 1076.07 34.7593 1076.07 33.593V20.3626C1076.07 19.1963 1077.05 18.2525 1078.26 18.2525L1092.06 18.2525C1093.28 18.2525 1094.26 19.1963 1094.26 20.3626V33.593C1094.26 34.7593 1095.24 35.7031 1096.45 35.7031H1111.04C1112.25 35.7031 1113.23 34.7593 1113.23 33.593V20.3626C1113.23 19.1963 1114.21 18.2525 1115.43 18.2525H1129.23C1130.44 18.2525 1131.42 19.1963 1131.42 20.3626V33.593C1131.42 34.7593 1132.4 35.7031 1133.62 35.7031H1148.21C1149.42 35.7031 1150.4 34.7593 1150.4 33.593V20.3626C1150.4 19.1963 1151.38 18.2525 1152.59 18.2525L1166.4 18.2525C1167.61 18.2525 1168.59 19.1963 1168.59 20.3626V33.593C1168.59 34.7593 1169.57 35.7031 1170.78 35.7031H1185.37C1186.58 35.7031 1187.57 34.7593 1187.57 33.593V20.3626C1187.57 19.1963 1188.55 18.2525 1189.76 18.2525L1203.56 18.2525C1204.77 18.2525 1205.76 19.1963 1205.76 20.3626V33.593C1205.76 34.7593 1206.74 35.7031 1207.95 35.7031L1222.54 35.7031C1223.75 35.7031 1224.73 34.7593 1224.73 33.593V20.3626C1224.73 19.1963 1225.71 18.2525 1226.93 18.2525H1240.73C1241.94 18.2525 1242.92 19.1963 1242.92 20.3626V33.593C1242.92 34.7593 1243.9 35.7031 1245.12 35.7031H1259.7C1260.92 35.7031 1261.9 34.7593 1261.9 33.593V20.3626C1261.9 19.1963 1262.88 18.2525 1264.09 18.2525H1277.9C1279.11 18.2525 1280.09 19.1963 1280.09 20.3626V33.593C1280.09 34.7593 1281.07 35.7031 1282.28 35.7031H1296.87C1298.08 35.7031 1299.06 34.7593 1299.06 33.593V20.3626C1299.06 19.1963 1300.05 18.2525 1301.26 18.2525L1315.06 18.2525C1316.27 18.2525 1317.26 19.1963 1317.26 20.3626V33.593C1317.26 34.7593 1318.24 35.7031 1319.45 35.7031L1334.04 35.7031C1335.25 35.7031 1336.23 34.7593 1336.23 33.593V20.3626C1336.23 19.1963 1337.21 18.2525 1338.43 18.2525L1352.23 18.2525C1353.44 18.2525 1354.42 17.3087 1354.42 16.1424V2.11011C1354.42 0.943796 1353.44 0 1352.23 0L1352.25 0Z" fill="#FF5120"/>
<path d="M1797.39 0L1782.8 0C1781.59 0 1780.61 0.943796 1780.61 2.11011V15.3405C1780.61 16.5068 1779.63 17.4506 1778.41 17.4506H1764.61C1763.4 17.4506 1762.42 16.5068 1762.42 15.3405V2.11011C1762.42 0.943796 1761.44 0 1760.22 0L1745.64 0C1744.42 0 1743.44 0.943796 1743.44 2.11011V15.3405C1743.44 16.5068 1742.46 17.4506 1741.25 17.4506H1727.45C1726.23 17.4506 1725.25 16.5068 1725.25 15.3405V2.11011C1725.25 0.943796 1724.27 0 1723.06 0L1708.47 0C1707.26 0 1706.28 0.943796 1706.28 2.11011V15.3405C1706.28 16.5068 1705.29 17.4506 1704.08 17.4506L1690.28 17.4506C1689.07 17.4506 1688.08 16.5068 1688.08 15.3405V2.11011C1688.08 0.943796 1687.1 0 1685.89 0L1671.3 0C1670.09 0 1669.11 0.943796 1669.11 2.11011V15.3405C1669.11 16.5068 1668.13 17.4506 1666.91 17.4506H1653.11C1651.9 17.4506 1650.92 16.5068 1650.92 15.3405V2.11011C1650.92 0.943796 1649.94 0 1648.72 0L1634.14 0C1632.92 0 1631.94 0.943796 1631.94 2.11011V15.3405C1631.94 16.5068 1630.96 17.4506 1629.75 17.4506H1615.95C1614.73 17.4506 1613.75 16.5068 1613.75 15.3405V2.11011C1613.75 0.943796 1612.77 0 1611.56 0L1596.97 0C1595.76 0 1594.78 0.943796 1594.78 2.11011V15.3405C1594.78 16.5068 1593.79 17.4506 1592.58 17.4506L1578.78 17.4506C1577.57 17.4506 1576.59 16.5068 1576.59 15.3405V2.11011C1576.59 0.943796 1575.6 0 1574.39 0L1559.8 0C1558.59 0 1557.61 0.943796 1557.61 2.11011V15.3405C1557.61 16.5068 1556.63 17.4506 1555.42 17.4506L1541.61 17.4506C1540.4 17.4506 1539.42 16.5068 1539.42 15.3405V2.11011C1539.42 0.943796 1538.44 0 1537.23 0L1522.64 0C1521.42 0 1520.44 0.943796 1520.44 2.11011V15.3405C1520.44 16.5068 1519.46 17.4506 1518.25 17.4506H1504.45C1503.23 17.4506 1502.25 16.5068 1502.25 15.3405V2.11011C1502.25 0.943796 1501.27 0 1500.06 0L1485.47 0C1484.26 0 1483.28 0.943796 1483.28 2.11011V15.3405C1483.28 16.5068 1482.3 17.4506 1481.08 17.4506H1467.28C1466.07 17.4506 1465.09 16.5068 1465.09 15.3405V2.11011C1465.09 0.943796 1464.1 0 1462.89 0L1448.3 0C1447.09 0 1446.11 0.943796 1446.11 2.11011V15.3405C1446.11 16.5068 1445.13 17.4506 1443.92 17.4506L1430.11 17.4506C1428.9 17.4506 1427.92 16.5068 1427.92 15.3405V2.11011C1427.92 0.943796 1426.94 0 1425.73 0L1411.14 0C1409.92 0 1408.94 0.943796 1408.94 2.11011V15.3405C1408.94 16.5068 1407.96 17.4506 1406.75 17.4506H1392.95C1391.73 17.4506 1390.75 16.5068 1390.75 15.3405V2.11011C1390.75 0.943796 1389.77 0 1388.56 0L1373.97 0C1372.76 0 1371.78 0.943796 1371.78 2.11011V15.3405C1371.78 16.5068 1370.8 17.4506 1369.58 17.4506H1356.61C1355.4 17.4506 1354.42 16.5068 1354.42 15.3405V2.11011C1354.42 0.943796 1353.44 0 1352.23 0L1337.62 0C1336.4 0 1335.42 0.943796 1335.42 2.11011V16.1424C1335.42 17.3087 1336.4 18.2525 1337.62 18.2525L1351.37 18.2525C1352.58 18.2525 1353.56 19.1963 1353.56 20.3626V33.593C1353.56 34.7593 1354.55 35.7031 1355.76 35.7031L1370.35 35.7031C1371.56 35.7031 1372.54 34.7593 1372.54 33.593V20.3626C1372.54 19.1963 1373.52 18.2525 1374.73 18.2525L1388.54 18.2525C1389.75 18.2525 1390.73 19.1963 1390.73 20.3626V33.593C1390.73 34.7593 1391.71 35.7031 1392.92 35.7031H1407.51C1408.73 35.7031 1409.71 34.7593 1409.71 33.593V20.3626C1409.71 19.1963 1410.69 18.2525 1411.9 18.2525H1425.7C1426.92 18.2525 1427.9 19.1963 1427.9 20.3626V33.593C1427.9 34.7593 1428.88 35.7031 1430.09 35.7031H1444.68C1445.89 35.7031 1446.87 34.7593 1446.87 33.593V20.3626C1446.87 19.1963 1447.85 18.2525 1449.07 18.2525H1462.87C1464.08 18.2525 1465.06 19.1963 1465.06 20.3626V33.593C1465.06 34.7593 1466.05 35.7031 1467.26 35.7031L1481.85 35.7031C1483.06 35.7031 1484.04 34.7593 1484.04 33.593V20.3626C1484.04 19.1963 1485.02 18.2525 1486.23 18.2525L1500.04 18.2525C1501.25 18.2525 1502.23 19.1963 1502.23 20.3626V33.593C1502.23 34.7593 1503.21 35.7031 1504.42 35.7031H1519.01C1520.23 35.7031 1521.21 34.7593 1521.21 33.593V20.3626C1521.21 19.1963 1522.19 18.2525 1523.4 18.2525L1537.2 18.2525C1538.42 18.2525 1539.4 19.1963 1539.4 20.3626V33.593C1539.4 34.7593 1540.38 35.7031 1541.59 35.7031H1556.18C1557.39 35.7031 1558.37 34.7593 1558.37 33.593V20.3626C1558.37 19.1963 1559.35 18.2525 1560.57 18.2525H1574.37C1575.58 18.2525 1576.56 19.1963 1576.56 20.3626V33.593C1576.56 34.7593 1577.54 35.7031 1578.76 35.7031H1593.35C1594.56 35.7031 1595.54 34.7593 1595.54 33.593V20.3626C1595.54 19.1963 1596.52 18.2525 1597.73 18.2525L1611.54 18.2525C1612.75 18.2525 1613.73 19.1963 1613.73 20.3626V33.593C1613.73 34.7593 1614.71 35.7031 1615.92 35.7031H1630.51C1631.72 35.7031 1632.71 34.7593 1632.71 33.593V20.3626C1632.71 19.1963 1633.69 18.2525 1634.9 18.2525L1648.7 18.2525C1649.92 18.2525 1650.9 19.1963 1650.9 20.3626V33.593C1650.9 34.7593 1651.88 35.7031 1653.09 35.7031L1667.68 35.7031C1668.89 35.7031 1669.87 34.7593 1669.87 33.593V20.3626C1669.87 19.1963 1670.85 18.2525 1672.07 18.2525H1685.87C1687.08 18.2525 1688.06 19.1963 1688.06 20.3626V33.593C1688.06 34.7593 1689.04 35.7031 1690.26 35.7031H1704.85C1706.06 35.7031 1707.04 34.7593 1707.04 33.593V20.3626C1707.04 19.1963 1708.02 18.2525 1709.23 18.2525H1723.04C1724.25 18.2525 1725.23 19.1963 1725.23 20.3626V33.593C1725.23 34.7593 1726.21 35.7031 1727.42 35.7031H1742.01C1743.22 35.7031 1744.21 34.7593 1744.21 33.593V20.3626C1744.21 19.1963 1745.19 18.2525 1746.4 18.2525L1760.2 18.2525C1761.41 18.2525 1762.4 19.1963 1762.4 20.3626V33.593C1762.4 34.7593 1763.38 35.7031 1764.59 35.7031L1779.18 35.7031C1780.39 35.7031 1781.37 34.7593 1781.37 33.593V20.3626C1781.37 19.1963 1782.35 18.2525 1783.57 18.2525L1797.37 18.2525C1798.58 18.2525 1799.56 17.3087 1799.56 16.1424V2.11011C1799.56 0.943796 1798.58 0 1797.37 0L1797.39 0Z" fill="#FF5120"/>
</svg>
