<svg width="300" height="69" viewBox="0 0 300 69" fill="none" xmlns="http://www.w3.org/2000/svg">
<path fill-rule="evenodd" clip-rule="evenodd" d="M148.274 23.2442C144.237 14.8346 134.797 10.7861 127.464 10.7861H101.737C100.424 10.7861 99.3532 11.8516 99.3532 13.172V65.2624C99.3532 66.5762 100.418 67.6482 101.737 67.6482H118.163C119.476 67.6482 120.547 66.5828 120.547 65.2624V55.3071C120.547 53.9932 121.612 52.9212 122.931 52.9212H127.36C132.781 52.9212 139.325 50.9979 144.022 46.7364C144.582 53.4828 146.592 58.6836 150.061 62.3271V62.3337C154.193 66.6805 159.607 68.8572 166.476 68.8572C173.344 68.8572 179.287 66.879 184.305 62.9226C186.546 61.1556 188.68 58.9888 190.707 56.4216C190.667 57.0757 190.647 57.7161 190.647 58.3427C190.65 64.6001 193.539 67.7321 199.313 67.7321C202.473 67.7321 205.316 66.7 207.841 64.6292C210.36 62.565 212.429 60.2229 214.042 57.6029C214.236 57.2877 214.432 56.9657 214.627 56.637L214.627 56.7894C214.627 60.4414 215.321 63.1673 216.723 64.9602C218.124 66.7532 220.101 67.653 222.653 67.653C225.872 67.653 228.668 66.3761 231.042 63.8223C233.415 61.2684 235.51 58.0133 237.335 54.0569C237.156 55.4 237.064 56.6438 237.064 57.8016C237.064 64.4375 239.675 67.7522 244.904 67.7522C248.064 67.7522 250.907 66.7201 253.432 64.6493C255.951 62.585 258.02 60.2429 259.633 57.623C260.059 56.932 260.489 56.2087 260.921 55.4533C261.484 58.5245 262.775 61.138 264.793 63.2864C267.589 66.2702 271.179 67.7589 275.555 67.7589C278.471 67.7589 281.393 66.8458 284.308 65.0198C287.223 63.1938 289.834 60.6995 292.148 57.537H292.135C296.227 52.1383 297.424 47.0439 297.424 47.0439C298.699 43.028 299.341 39.0451 299.341 35.0887C299.341 26.4481 296.022 22.1278 289.398 22.1278C288.241 22.1278 287.012 22.4321 285.703 23.0408C284.4 23.6495 283.138 24.5625 281.921 25.7799C281.439 26.2628 280.923 26.5076 280.374 26.5076C280.07 26.5076 279.832 26.4216 279.647 26.2364C279.469 26.0511 279.376 25.8394 279.376 25.5946L279.469 25.2307C280.136 22.6108 281.716 18.5684 284.209 13.0903C284.334 12.7859 284.665 11.992 285.214 10.7151C286.185 8.5847 286.675 6.82483 286.675 5.42222C286.675 3.2323 285.518 2.13403 283.025 2.13403C280.533 2.13403 278.279 3.74836 276.276 6.97039C274.273 10.1924 271.9 15.5183 269.163 22.9416L263.147 40.011C262.784 41.2246 262.481 42.1357 262.237 42.7444C261.206 44.2656 260.221 45.4231 259.276 46.2103C258.331 46.9976 257.286 47.3945 255.944 47.3945C254.602 47.3945 253.492 46.9711 252.612 46.1176C251.733 45.2642 251.29 44.0137 251.29 42.3729C251.29 41.4004 251.455 40.3153 251.793 39.1311C252.13 37.9402 252.632 36.4052 253.3 34.5197C254.027 32.3297 254.556 30.6162 254.893 29.3657C255.23 28.1153 255.395 26.9178 255.395 25.76C255.395 23.3253 254.45 22.1079 252.566 22.1079C250.318 22.1079 248.216 23.6296 246.273 26.673C244.322 29.7164 242.379 34.341 240.435 40.5469L240.343 40.9108C238.882 45.1715 236.33 47.3019 232.681 47.3019C231.22 47.3019 230.222 46.9645 229.673 46.2963C229.124 45.628 228.853 44.5959 228.853 43.1933C228.853 42.0421 229.005 40.8843 229.31 39.7265C229.607 38.5753 230.129 36.961 230.856 34.8902C231.584 32.7002 232.112 30.9668 232.45 29.6899C232.787 28.413 232.952 27.103 232.952 25.7666C232.952 23.3319 232.007 22.1145 230.123 22.1145C227.63 22.1145 225.303 23.8347 223.148 27.2684C220.993 30.7022 218.818 35.8627 216.63 42.7368L216.625 42.7524C214.625 45.8404 212.164 47.3877 209.256 47.3877C207.669 47.3877 206.565 46.9974 205.924 46.2034C205.283 45.4095 204.965 44.3179 204.965 42.9153C204.965 41.4002 205.336 39.3889 206.063 36.8946C207.947 29.961 211.503 21.2278 216.732 10.7016C217.764 8.69695 218.279 6.96354 218.279 5.50139C218.279 3.25193 217.03 2.1272 214.538 2.1272C212.35 2.1272 210.346 3.37763 208.522 5.87189C206.697 8.37276 204.919 11.8197 203.187 16.2327C201.455 20.6456 198.976 27.5395 195.757 36.9079L193.826 42.5197C193.765 42.5902 193.707 42.667 193.652 42.7501C192.251 44.8805 190.142 46.4022 187.313 47.3152C184.483 48.2283 181.455 48.6848 178.236 48.6848C172.458 48.6848 168.036 47.2755 164.968 44.4439C161.894 41.6122 160.361 38.0395 160.361 33.7192C160.361 30.7354 161.002 27.864 162.278 25.0919C163.554 22.3263 165.319 20.1033 167.566 18.4295C169.814 16.7556 172.273 15.922 174.951 15.922C176.531 15.922 177.787 16.2991 178.732 17.0599C179.677 17.8208 180.147 18.9588 180.147 20.4804C180.147 22.6108 179.267 25.3499 177.502 28.6976C177.258 29.3063 177.139 29.7297 177.139 29.9745C177.139 30.6427 177.456 31.2183 178.097 31.7079C178.739 32.1909 179.545 32.4357 180.517 32.4357C182.831 32.4357 185.263 31.6153 187.815 29.9745C190.373 28.3271 192.515 26.0776 194.247 23.2195C195.979 20.3614 196.845 17.2584 196.845 13.9107C196.845 9.89473 195.371 6.7124 192.423 4.37032C189.474 2.02823 185.171 0.857178 179.519 0.857178C173.377 0.857178 167.553 2.78907 162.053 6.65286C156.553 10.5166 152.144 15.6706 148.832 22.1212C148.64 22.4942 148.454 22.8686 148.274 23.2442ZM275.502 47.5004C276.263 48.4135 277.466 48.87 279.105 48.87C280.566 48.87 281.888 48.4267 283.072 47.5467C284.255 46.6668 285.18 45.5553 285.855 44.2189C286.522 42.8824 286.86 41.5724 286.86 40.2955C286.86 38.8929 286.45 37.7417 285.63 36.8287C284.81 35.9157 283.548 35.4592 281.842 35.4592C279.713 35.4592 277.935 36.3457 276.507 38.1056C275.079 39.8721 274.365 41.8172 274.365 43.9476C274.365 45.4098 274.742 46.594 275.502 47.5071V47.5004ZM21.6053 68.857C32.0423 68.857 45.6732 63.9023 45.6732 50.2342L45.6798 50.2277C45.6798 39.5468 36.8233 34.0561 31.7419 32.6899L25.7004 31.0623C25.5032 31.0093 25.3111 30.9599 25.1254 30.9122C23.5697 30.5124 22.4543 30.2258 22.4543 28.8594C22.4543 27.1926 24.27 26.552 27.2745 26.552C29.9197 26.552 33.2833 27.2384 36.1375 28.6241C37.7311 29.3955 39.5926 28.2908 39.5926 26.5128V14.3808C39.5926 13.433 39.0374 12.5571 38.1557 12.1911C34.9618 10.8707 29.1947 9.54373 23.3948 9.54373C13.2321 9.54373 0.561279 15.7208 0.561279 28.3953C0.561279 40.3574 9.8619 43.508 13.3692 44.4493L20.0769 46.273C21.7751 46.7371 23.8063 47.8026 23.8063 49.6132C23.8063 51.6134 21.2003 52.2475 18.3461 52.2475C14.3816 52.2475 9.56146 51.0317 6.15211 49.2472C4.57805 48.4236 2.69702 49.6067 2.69702 51.3847V63.7715C2.69702 64.7847 3.33709 65.6933 4.29067 66.0267C7.92209 67.3013 14.4992 68.857 21.6053 68.857ZM76.5999 10.792H93.3593C94.6786 10.792 95.7432 11.864 95.7432 13.1779V48.6913C95.7432 57.3393 89.1597 68.8372 71.5054 68.8372C53.8512 68.8372 47.2676 57.3458 47.2676 48.6913V13.1779C47.2676 11.8575 48.3388 10.792 49.6516 10.792H66.411C67.7303 10.792 68.7949 11.864 68.7949 13.1779V46.3578C68.7949 48.103 69.8857 49.2339 71.4989 49.2339C73.1121 49.2339 74.2029 48.103 74.2029 46.3578V13.1779C74.2029 11.8575 75.274 10.792 76.5868 10.792H76.5999ZM124.309 26.9774C126.737 26.9774 128.513 28.9745 128.516 31.8471C128.513 34.7197 126.737 36.7169 124.309 36.7169H122.925C121.612 36.7169 120.541 35.6515 120.541 34.3311V29.3632C120.541 28.0494 121.605 26.9774 122.925 26.9774H124.309Z" fill="#E3DAC5"/>
</svg>
