<svg width="88" height="79" viewBox="0 0 88 79" fill="none" xmlns="http://www.w3.org/2000/svg">
<path d="M54.4702 57.634C53.999 57.4775 53.6836 57.0338 53.6905 56.5374L53.7007 55.7974C53.7076 55.301 53.3921 54.8573 52.921 54.7008L47.1279 52.7764C46.6567 52.6199 46.1384 52.7866 45.8469 53.1885L45.4124 53.7875C45.1209 54.1894 44.6026 54.3561 44.1315 54.1996L39.7329 52.7385C38.984 52.4897 38.7089 51.5732 39.1971 50.9532L50.2518 36.9106C50.5487 36.5334 51.0502 36.3829 51.5057 36.5342L59.1326 39.0678C59.5877 39.219 59.8993 39.639 59.912 40.1184L60.3862 57.9907C60.4071 58.7801 59.638 59.3507 58.8886 59.1018L54.4702 57.634ZM50.383 46.9529C49.929 47.5762 50.2128 48.4611 50.9446 48.7042L52.2995 49.1543C53.0313 49.3974 53.7881 48.8582 53.7973 48.0871L53.8378 44.7029C53.842 44.351 53.6181 44.0367 53.2841 43.9258C52.9501 43.8148 52.5827 43.9326 52.3755 44.2171L50.383 46.9529Z" fill="#FF6138"/>
<path d="M22.9523 35.3725C22.3554 35.1742 22.0323 34.5295 22.2306 33.9326L27.5304 17.9783C27.7287 17.3814 28.3733 17.0582 28.9702 17.2565L33.3217 18.702C33.9186 18.9003 34.2418 19.5449 34.0435 20.1419L30.549 30.6614C30.3508 31.2583 30.6739 31.903 31.2708 32.1012L38.5122 34.5067C39.1091 34.705 39.4323 35.3497 39.234 35.9466L38.1467 39.2197C37.9484 39.8167 37.3038 40.1398 36.7069 39.9415L22.9523 35.3725Z" fill="#FF6138"/>
<path d="M74.511 59.3402C71.426 64.1207 65.2855 66.5038 57.5557 66.2354C49.8509 65.9679 40.767 63.056 32.1708 57.5086C23.5745 51.9613 17.1787 44.8838 13.7607 37.9736C10.3315 31.0408 9.97315 24.4639 13.0582 19.6833C16.1432 14.9027 22.2837 12.5196 30.0135 12.788C37.7182 13.0555 46.8021 15.9675 55.3984 21.5148C63.9946 27.0622 70.3905 34.1396 73.8085 41.0499C77.2377 47.9826 77.596 54.5596 74.511 59.3402Z" stroke="#FF6138" stroke-width="2.08965"/>
</svg>
