<svg width="300" height="69" viewBox="0 0 300 69" fill="none" xmlns="http://www.w3.org/2000/svg">
<path fill-rule="evenodd" clip-rule="evenodd" d="M148.101 22.4743C144.064 14.0652 134.624 10.0171 127.291 10.0171H101.564C100.251 10.0171 99.1801 11.0826 99.1801 12.403V64.4933C99.1801 65.8072 100.245 66.8792 101.564 66.8792H117.991C119.303 66.8792 120.375 65.8137 120.375 64.4933V54.5381C120.375 53.2242 121.439 52.1522 122.758 52.1522H127.187C132.608 52.1522 139.151 50.2291 143.849 45.9682C144.409 52.7143 146.419 57.9149 149.888 61.5583V61.5649C154.019 65.9117 159.434 68.0884 166.302 68.0884C173.171 68.0884 179.114 66.1102 184.131 62.1538C186.372 60.387 188.506 58.2204 190.534 55.6535C190.493 56.3073 190.473 56.9475 190.473 57.574C190.477 63.8314 193.365 66.9634 199.14 66.9634C202.3 66.9634 205.142 65.9313 207.668 63.8605C210.186 61.7963 212.255 59.4542 213.868 56.8342C214.063 56.5195 214.258 56.1981 214.453 55.8699L214.453 56.0209C214.453 59.6729 215.147 62.3988 216.548 64.1917C217.95 65.9847 219.927 66.8845 222.478 66.8845C225.698 66.8845 228.494 65.6076 230.867 63.0538C233.241 60.5 235.336 57.2448 237.161 53.2884C236.982 54.6315 236.89 55.8753 236.89 57.0331C236.89 63.669 239.501 66.9837 244.73 66.9837C247.89 66.9837 250.733 65.9516 253.258 63.8808C255.777 61.8165 257.846 59.4745 259.459 56.8545C259.885 56.1637 260.315 55.4406 260.747 54.6853C261.309 57.7562 262.601 60.3695 264.619 62.5178C267.415 65.5016 271.005 66.9902 275.381 66.9902C278.296 66.9902 281.218 66.0772 284.134 64.2512C287.049 62.4251 289.66 59.9309 291.974 56.7684H291.961C296.053 51.3697 297.25 46.2753 297.25 46.2753C298.525 42.2594 299.167 38.2765 299.167 34.3201C299.167 25.6795 295.848 21.3592 289.224 21.3592C288.067 21.3592 286.838 21.6635 285.529 22.2722C284.226 22.8809 282.964 23.7939 281.747 25.0113C281.265 25.4942 280.749 25.739 280.2 25.739C279.896 25.739 279.658 25.653 279.473 25.4678C279.295 25.2825 279.202 25.0708 279.202 24.826L279.295 24.4621C279.962 21.8422 281.542 17.7997 284.035 12.3216C284.16 12.0173 284.491 11.2234 285.039 9.94646C286.011 7.81609 286.5 6.05621 286.5 4.6536C286.5 2.46368 285.344 1.36542 282.851 1.36542C280.359 1.36542 278.105 2.97974 276.102 6.20177C274.099 9.42379 271.725 14.7497 268.988 22.173L262.973 39.2424C262.61 40.4571 262.306 41.3688 262.062 41.9775C261.031 43.4979 260.047 44.6549 259.102 45.4418C258.157 46.2291 257.112 46.626 255.77 46.626C254.428 46.626 253.318 46.2026 252.438 45.3491C251.559 44.4957 251.116 43.2452 251.116 41.6045C251.116 40.6319 251.281 39.5468 251.619 38.3626C251.956 37.1717 252.458 35.6367 253.126 33.7512C253.853 31.5612 254.382 29.8477 254.719 28.5972C255.056 27.3468 255.222 26.1493 255.222 24.9915C255.222 22.5568 254.276 21.3394 252.392 21.3394C250.144 21.3394 248.042 22.8611 246.099 25.9045C244.148 28.9479 242.205 33.5725 240.261 39.7784L240.169 40.1423C238.708 44.403 236.156 46.5334 232.507 46.5334C231.046 46.5334 230.048 46.196 229.499 45.5278C228.95 44.8596 228.679 43.8274 228.679 42.4248C228.679 41.2736 228.831 40.1158 229.135 38.958C229.433 37.8068 229.955 36.1925 230.682 34.1217C231.409 31.9317 231.938 30.1983 232.275 28.9214C232.613 27.6445 232.778 26.3345 232.778 24.9981C232.778 22.5634 231.833 21.346 229.948 21.346C227.456 21.346 225.129 23.0662 222.974 26.5C220.819 29.9337 218.644 35.0942 216.456 41.9683L216.45 41.9863C214.45 45.0726 211.99 46.619 209.082 46.619C207.496 46.619 206.392 46.2287 205.75 45.4347C205.109 44.6408 204.792 43.5492 204.792 42.1465C204.792 40.6315 205.162 38.6202 205.889 36.1259C207.773 29.1923 211.33 20.4591 216.559 9.9329C217.59 7.92823 218.106 6.19482 218.106 4.73267C218.106 2.48321 216.857 1.35848 214.364 1.35848C212.176 1.35848 210.173 2.60891 208.348 5.10317C206.524 7.60404 204.746 11.051 203.014 15.4639C201.281 19.8769 198.802 26.7708 195.583 36.1392L193.652 41.7518C193.592 41.822 193.534 41.8985 193.479 41.9813C192.078 44.1117 189.969 45.6334 187.139 46.5464C184.31 47.4595 181.282 47.916 178.063 47.916C172.285 47.916 167.862 46.5067 164.795 43.6751C161.721 40.8434 160.187 37.2707 160.187 32.9504C160.187 29.9666 160.828 27.0952 162.104 24.3231C163.38 21.5575 165.145 19.3345 167.393 17.6607C169.641 15.9868 172.1 15.1532 174.777 15.1532C176.357 15.1532 177.613 15.5303 178.559 16.2911C179.504 17.052 179.973 18.19 179.973 19.7117C179.973 21.842 179.094 24.5811 177.329 27.9288C177.084 28.5375 176.965 28.9609 176.965 29.2057C176.965 29.8739 177.283 30.4495 177.924 30.9391C178.565 31.4221 179.372 31.6669 180.344 31.6669C182.657 31.6669 185.09 30.8465 187.642 29.2057C190.2 27.5583 192.342 25.3088 194.074 22.4507C195.806 19.5926 196.672 16.4896 196.672 13.1419C196.672 9.12594 195.198 5.94361 192.25 3.60152C189.301 1.25943 184.998 0.0883789 179.345 0.0883789C173.204 0.0883789 167.38 2.02027 161.88 5.88406C156.379 9.74785 151.97 14.9018 148.658 21.3524C148.467 21.7251 148.281 22.099 148.101 22.4743ZM275.328 46.7318C276.088 47.6448 277.292 48.1013 278.931 48.1013C280.392 48.1013 281.714 47.6581 282.898 46.7781C284.081 45.8982 285.006 44.7867 285.681 43.4502C286.348 42.1138 286.685 40.8038 286.685 39.5269C286.685 38.1243 286.276 36.9731 285.456 36.0601C284.636 35.1471 283.374 34.6906 281.668 34.6906C279.539 34.6906 277.761 35.5771 276.333 37.337C274.905 39.1035 274.191 41.0486 274.191 43.179C274.191 44.6411 274.568 45.8254 275.328 46.7384V46.7318ZM21.433 68.0882C31.8702 68.0882 45.5012 63.1334 45.5012 49.4653L45.5078 49.4588C45.5078 38.778 36.6512 33.2872 31.5698 31.921L25.5282 30.2934C25.331 30.2404 25.1389 30.1911 24.9532 30.1433C23.3975 29.7436 22.2821 29.457 22.2821 28.0906C22.2821 26.4237 24.0978 25.7832 27.1023 25.7832C29.7475 25.7832 33.1112 26.4695 35.9654 27.8553C37.5591 28.6266 39.4205 27.5219 39.4205 25.7439V13.612C39.4205 12.6641 38.8653 11.7882 37.9836 11.4222C34.7897 10.1018 29.0225 8.77485 23.2226 8.77485C13.0598 8.77485 0.388855 14.952 0.388855 27.6265C0.388855 39.5885 9.68956 42.7392 13.1969 43.6804L19.9047 45.5041C21.6028 45.9682 23.6341 47.0337 23.6341 48.8444C23.6341 50.8446 21.0281 51.4786 18.1738 51.4786C14.2093 51.4786 9.38912 50.2628 5.97973 48.4783C4.40566 47.6547 2.52461 48.8378 2.52461 50.6158V63.0027C2.52461 64.0159 3.16469 64.9245 4.11828 65.2578C7.74974 66.5325 14.3269 68.0882 21.433 68.0882ZM76.4275 10.023H93.1871C94.5064 10.023 95.571 11.095 95.571 12.4089V47.9224C95.571 56.5703 88.9874 68.0682 71.333 68.0682C53.6786 68.0682 47.095 56.5768 47.095 47.9224V12.4089C47.095 11.0885 48.1661 10.023 49.4789 10.023H66.2385C67.5579 10.023 68.6225 11.095 68.6225 12.4089V45.5888C68.6225 47.3341 69.7132 48.4649 71.3265 48.4649C72.9397 48.4649 74.0305 47.3341 74.0305 45.5888V12.4089C74.0305 11.0885 75.1016 10.023 76.4145 10.023H76.4275ZM124.137 26.2083C126.564 26.2083 128.34 28.2055 128.343 31.0781C128.34 33.9507 126.564 35.9479 124.137 35.9479H122.752C121.439 35.9479 120.368 34.8824 120.368 33.562V28.5942C120.368 27.2803 121.433 26.2083 122.752 26.2083H124.137Z" fill="#FF5120"/>
</svg>
